<?xml version="1.0" encoding="utf-8" standalone="no"?>
<!DOCTYPE svg PUBLIC "-//W3C//DTD SVG 1.1//EN"
  "http://www.w3.org/Graphics/SVG/1.1/DTD/svg11.dtd">
<svg xmlns:xlink="http://www.w3.org/1999/xlink" width="352.550451pt" height="503.394375pt" viewBox="0 0 352.550451 503.394375" xmlns="http://www.w3.org/2000/svg" version="1.1">
 <metadata>
  <rdf:RDF xmlns:dc="http://purl.org/dc/elements/1.1/" xmlns:cc="http://creativecommons.org/ns#" xmlns:rdf="http://www.w3.org/1999/02/22-rdf-syntax-ns#">
   <cc:Work>
    <dc:type rdf:resource="http://purl.org/dc/dcmitype/StillImage"/>
    <dc:date>2025-09-15T15:30:39.595160</dc:date>
    <dc:format>image/svg+xml</dc:format>
    <dc:creator>
     <cc:Agent>
      <dc:title>Matplotlib v3.10.6, https://matplotlib.org/</dc:title>
     </cc:Agent>
    </dc:creator>
   </cc:Work>
  </rdf:RDF>
 </metadata>
 <defs>
  <style type="text/css">*{stroke-linejoin: round; stroke-linecap: butt}</style>
 </defs>
 <g id="figure_1">
  <g id="patch_1">
   <path d="M 0 503.394375 
L 352.550451 503.394375 
L 352.550451 0 
L 0 0 
z
" style="fill: #ffffff"/>
  </g>
  <g id="axes_1">
   <g id="patch_2">
    <path d="M 66.053125 223.918125 
L 345.053125 223.918125 
L 345.053125 22.318125 
L 66.053125 22.318125 
z
" style="fill: #ffffff"/>
   </g>
   <g id="matplotlib.axis_1">
    <g id="xtick_1">
     <g id="line2d_1">
      <defs>
       <path id="m5b4b72d6d6" d="M 0 0 
L 0 3.5 
" style="stroke: #000000; stroke-width: 0.8"/>
      </defs>
      <g>
       <use xlink:href="#m5b4b72d6d6" x="78.480799" y="223.918125" style="stroke: #000000; stroke-width: 0.8"/>
      </g>
     </g>
     <g id="text_1">
      <text style="font-size: 10px; font-family: 'DejaVu Sans', 'Bitstream Vera Sans', 'Computer Modern Sans Serif', 'Lucida Grande', 'Verdana', 'Geneva', 'Lucid', 'Arial', 'Helvetica', 'Avant Garde', sans-serif; text-anchor: middle" x="78.480799" y="238.516562" transform="rotate(-0 78.480799 238.516562)">0</text>
     </g>
    </g>
    <g id="xtick_2">
     <g id="line2d_2">
      <g>
       <use xlink:href="#m5b4b72d6d6" x="129.309729" y="223.918125" style="stroke: #000000; stroke-width: 0.8"/>
      </g>
     </g>
     <g id="text_2">
      <text style="font-size: 10px; font-family: 'DejaVu Sans', 'Bitstream Vera Sans', 'Computer Modern Sans Serif', 'Lucida Grande', 'Verdana', 'Geneva', 'Lucid', 'Arial', 'Helvetica', 'Avant Garde', sans-serif; text-anchor: middle" x="129.309729" y="238.516562" transform="rotate(-0 129.309729 238.516562)">200</text>
     </g>
    </g>
    <g id="xtick_3">
     <g id="line2d_3">
      <g>
       <use xlink:href="#m5b4b72d6d6" x="180.13866" y="223.918125" style="stroke: #000000; stroke-width: 0.8"/>
      </g>
     </g>
     <g id="text_3">
      <text style="font-size: 10px; font-family: 'DejaVu Sans', 'Bitstream Vera Sans', 'Computer Modern Sans Serif', 'Lucida Grande', 'Verdana', 'Geneva', 'Lucid', 'Arial', 'Helvetica', 'Avant Garde', sans-serif; text-anchor: middle" x="180.13866" y="238.516562" transform="rotate(-0 180.13866 238.516562)">400</text>
     </g>
    </g>
    <g id="xtick_4">
     <g id="line2d_4">
      <g>
       <use xlink:href="#m5b4b72d6d6" x="230.96759" y="223.918125" style="stroke: #000000; stroke-width: 0.8"/>
      </g>
     </g>
     <g id="text_4">
      <text style="font-size: 10px; font-family: 'DejaVu Sans', 'Bitstream Vera Sans', 'Computer Modern Sans Serif', 'Lucida Grande', 'Verdana', 'Geneva', 'Lucid', 'Arial', 'Helvetica', 'Avant Garde', sans-serif; text-anchor: middle" x="230.96759" y="238.516562" transform="rotate(-0 230.96759 238.516562)">600</text>
     </g>
    </g>
    <g id="xtick_5">
     <g id="line2d_5">
      <g>
       <use xlink:href="#m5b4b72d6d6" x="281.796521" y="223.918125" style="stroke: #000000; stroke-width: 0.8"/>
      </g>
     </g>
     <g id="text_5">
      <text style="font-size: 10px; font-family: 'DejaVu Sans', 'Bitstream Vera Sans', 'Computer Modern Sans Serif', 'Lucida Grande', 'Verdana', 'Geneva', 'Lucid', 'Arial', 'Helvetica', 'Avant Garde', sans-serif; text-anchor: middle" x="281.796521" y="238.516562" transform="rotate(-0 281.796521 238.516562)">800</text>
     </g>
    </g>
    <g id="xtick_6">
     <g id="line2d_6">
      <g>
       <use xlink:href="#m5b4b72d6d6" x="332.625451" y="223.918125" style="stroke: #000000; stroke-width: 0.8"/>
      </g>
     </g>
     <g id="text_6">
      <text style="font-size: 10px; font-family: 'DejaVu Sans', 'Bitstream Vera Sans', 'Computer Modern Sans Serif', 'Lucida Grande', 'Verdana', 'Geneva', 'Lucid', 'Arial', 'Helvetica', 'Avant Garde', sans-serif; text-anchor: middle" x="332.625451" y="238.516562" transform="rotate(-0 332.625451 238.516562)">1000</text>
     </g>
    </g>
    <g id="text_7">
     <text style="font-size: 10px; font-family: 'DejaVu Sans', 'Bitstream Vera Sans', 'Computer Modern Sans Serif', 'Lucida Grande', 'Verdana', 'Geneva', 'Lucid', 'Arial', 'Helvetica', 'Avant Garde', sans-serif; text-anchor: middle" x="205.553125" y="252.194687" transform="rotate(-0 205.553125 252.194687)">Fragment size</text>
    </g>
   </g>
   <g id="matplotlib.axis_2">
    <g id="ytick_1">
     <g id="line2d_7">
      <defs>
       <path id="m89e4e9c099" d="M 0 0 
L -3.5 0 
" style="stroke: #000000; stroke-width: 0.8"/>
      </defs>
      <g>
       <use xlink:href="#m89e4e9c099" x="66.053125" y="214.754489" style="stroke: #000000; stroke-width: 0.8"/>
      </g>
     </g>
     <g id="text_8">
      <text style="font-size: 10px; font-family: 'DejaVu Sans', 'Bitstream Vera Sans', 'Computer Modern Sans Serif', 'Lucida Grande', 'Verdana', 'Geneva', 'Lucid', 'Arial', 'Helvetica', 'Avant Garde', sans-serif; text-anchor: end" x="59.053125" y="218.553707" transform="rotate(-0 59.053125 218.553707)">0</text>
     </g>
    </g>
    <g id="ytick_2">
     <g id="line2d_8">
      <g>
       <use xlink:href="#m89e4e9c099" x="66.053125" y="181.776821" style="stroke: #000000; stroke-width: 0.8"/>
      </g>
     </g>
     <g id="text_9">
      <text style="font-size: 10px; font-family: 'DejaVu Sans', 'Bitstream Vera Sans', 'Computer Modern Sans Serif', 'Lucida Grande', 'Verdana', 'Geneva', 'Lucid', 'Arial', 'Helvetica', 'Avant Garde', sans-serif; text-anchor: end" x="59.053125" y="185.57604" transform="rotate(-0 59.053125 185.57604)">50000</text>
     </g>
    </g>
    <g id="ytick_3">
     <g id="line2d_9">
      <g>
       <use xlink:href="#m89e4e9c099" x="66.053125" y="148.799154" style="stroke: #000000; stroke-width: 0.8"/>
      </g>
     </g>
     <g id="text_10">
      <text style="font-size: 10px; font-family: 'DejaVu Sans', 'Bitstream Vera Sans', 'Computer Modern Sans Serif', 'Lucida Grande', 'Verdana', 'Geneva', 'Lucid', 'Arial', 'Helvetica', 'Avant Garde', sans-serif; text-anchor: end" x="59.053125" y="152.598372" transform="rotate(-0 59.053125 152.598372)">100000</text>
     </g>
    </g>
    <g id="ytick_4">
     <g id="line2d_10">
      <g>
       <use xlink:href="#m89e4e9c099" x="66.053125" y="115.821486" style="stroke: #000000; stroke-width: 0.8"/>
      </g>
     </g>
     <g id="text_11">
      <text style="font-size: 10px; font-family: 'DejaVu Sans', 'Bitstream Vera Sans', 'Computer Modern Sans Serif', 'Lucida Grande', 'Verdana', 'Geneva', 'Lucid', 'Arial', 'Helvetica', 'Avant Garde', sans-serif; text-anchor: end" x="59.053125" y="119.620705" transform="rotate(-0 59.053125 119.620705)">150000</text>
     </g>
    </g>
    <g id="ytick_5">
     <g id="line2d_11">
      <g>
       <use xlink:href="#m89e4e9c099" x="66.053125" y="82.843819" style="stroke: #000000; stroke-width: 0.8"/>
      </g>
     </g>
     <g id="text_12">
      <text style="font-size: 10px; font-family: 'DejaVu Sans', 'Bitstream Vera Sans', 'Computer Modern Sans Serif', 'Lucida Grande', 'Verdana', 'Geneva', 'Lucid', 'Arial', 'Helvetica', 'Avant Garde', sans-serif; text-anchor: end" x="59.053125" y="86.643038" transform="rotate(-0 59.053125 86.643038)">200000</text>
     </g>
    </g>
    <g id="ytick_6">
     <g id="line2d_12">
      <g>
       <use xlink:href="#m89e4e9c099" x="66.053125" y="49.866151" style="stroke: #000000; stroke-width: 0.8"/>
      </g>
     </g>
     <g id="text_13">
      <text style="font-size: 10px; font-family: 'DejaVu Sans', 'Bitstream Vera Sans', 'Computer Modern Sans Serif', 'Lucida Grande', 'Verdana', 'Geneva', 'Lucid', 'Arial', 'Helvetica', 'Avant Garde', sans-serif; text-anchor: end" x="59.053125" y="53.66537" transform="rotate(-0 59.053125 53.66537)">250000</text>
     </g>
    </g>
    <g id="text_14">
     <text style="font-size: 10px; font-family: 'DejaVu Sans', 'Bitstream Vera Sans', 'Computer Modern Sans Serif', 'Lucida Grande', 'Verdana', 'Geneva', 'Lucid', 'Arial', 'Helvetica', 'Avant Garde', sans-serif; text-anchor: middle" x="14.798438" y="123.118125" transform="rotate(-90 14.798438 123.118125)">Count</text>
    </g>
   </g>
   <g id="line2d_13">
    <path d="M 78.734943 214.754489 
L 82.547113 214.734702 
L 82.801258 214.446477 
L 83.055402 213.734819 
L 83.563692 211.082096 
L 84.834415 178.113662 
L 85.342704 148.324275 
L 85.596849 149.172461 
L 85.850993 148.511588 
L 86.359283 128.041691 
L 86.613427 115.794445 
L 87.375861 54.773888 
L 87.630006 58.600616 
L 88.39244 93.713258 
L 88.646585 89.453863 
L 89.154874 69.362548 
L 89.917308 31.481761 
L 90.171453 31.711945 
L 90.933887 70.699463 
L 91.188031 73.284912 
L 91.442176 68.483364 
L 92.458754 35.661351 
L 92.712899 35.391594 
L 93.221188 59.232469 
L 93.475333 70.787843 
L 93.729478 74.650188 
L 93.983622 72.88918 
L 94.491912 58.93501 
L 95.000201 48.427666 
L 95.254346 49.271894 
L 95.50849 56.371326 
L 96.01678 79.779534 
L 96.270924 87.277336 
L 96.525069 88.83784 
L 97.033358 78.261242 
L 97.287503 71.928211 
L 97.541647 68.688485 
L 97.795792 70.225904 
L 98.049937 75.391526 
L 98.812371 102.033524 
L 99.066515 105.873443 
L 99.32066 103.804424 
L 100.083094 91.802532 
L 100.337239 91.793298 
L 100.591383 94.988834 
L 101.353817 116.963833 
L 101.607962 120.95413 
L 101.862107 121.533878 
L 102.116251 120.043947 
L 102.624541 112.725543 
L 102.878685 111.229016 
L 103.13283 113.180635 
L 103.641119 123.927397 
L 104.149408 134.593034 
L 104.403553 136.775496 
L 104.657698 135.829037 
L 105.420132 129.000022 
L 105.674276 130.087625 
L 105.928421 132.78256 
L 106.690855 146.401677 
L 106.945 149.169163 
L 107.199144 149.076166 
L 107.453289 147.863907 
L 107.961578 142.636287 
L 108.215723 143.466665 
L 108.469868 144.879428 
L 108.724012 147.80059 
L 109.232302 156.013348 
L 109.740591 160.060368 
L 110.24888 158.871852 
L 110.503025 156.487567 
L 110.757169 155.203417 
L 111.011314 154.604542 
L 111.265459 153.706231 
L 112.282037 168.209149 
L 112.536182 168.687325 
L 112.790327 168.138577 
L 113.552761 164.993167 
L 113.806905 164.735282 
L 114.569339 169.151651 
L 115.077629 173.31673 
L 115.331773 174.339038 
L 115.840063 172.674985 
L 116.094207 171.124375 
L 116.348352 170.713473 
L 116.602496 170.595413 
L 117.619075 178.092556 
L 117.87322 178.316145 
L 118.635654 174.308699 
L 118.889798 172.999485 
L 119.143943 173.657719 
L 119.906377 179.53368 
L 120.160522 180.399674 
L 120.414666 180.422099 
L 120.668811 179.551488 
L 120.922956 177.823458 
L 121.1771 176.958784 
L 121.431245 176.892169 
L 121.68539 177.811586 
L 122.447823 182.813639 
L 122.701968 183.709972 
L 122.956113 183.991601 
L 123.972691 181.620507 
L 124.226836 182.181127 
L 124.98927 185.240795 
L 125.243415 185.840989 
L 125.497559 185.85418 
L 125.751704 185.048865 
L 126.259993 184.31874 
L 127.022427 185.852201 
L 127.784861 186.924635 
L 128.547295 186.109427 
L 128.80144 186.124597 
L 129.055584 186.907487 
L 129.309729 187.164712 
L 129.563874 187.624421 
L 129.818018 188.648708 
L 130.072163 188.727854 
L 130.580452 188.694217 
L 130.834597 188.340696 
L 131.088742 188.318271 
L 131.597031 189.16184 
L 132.867754 191.448511 
L 133.121899 191.641761 
L 133.630188 191.415534 
L 134.646767 192.80917 
L 134.900911 193.479936 
L 135.155056 193.609208 
L 135.663345 194.328781 
L 135.91749 194.320207 
L 136.425779 194.776618 
L 136.679924 194.748257 
L 138.458937 197.307324 
L 138.713081 197.191243 
L 138.967226 197.62391 
L 139.221371 197.666121 
L 139.475515 197.862668 
L 139.983805 198.576964 
L 140.492094 199.298515 
L 140.746238 199.677759 
L 141.000383 199.463404 
L 141.254528 199.909921 
L 141.508672 200.066895 
L 141.762817 200.018088 
L 142.016962 200.490328 
L 142.779396 201.176264 
L 143.287685 201.69863 
L 143.54183 201.540997 
L 143.795974 202.040938 
L 144.304264 202.246719 
L 144.558408 202.610133 
L 145.320842 203.117989 
L 146.083276 203.724118 
L 147.608144 204.429181 
L 147.862289 204.704874 
L 148.116433 204.802488 
L 148.370578 205.177114 
L 148.878867 205.307046 
L 149.133012 205.425107 
L 149.387157 205.381576 
L 150.149591 205.690907 
L 150.65788 206.151275 
L 150.912025 206.201401 
L 151.674459 206.662429 
L 151.928603 206.486987 
L 152.691037 206.784446 
L 152.945182 206.622196 
L 153.199326 207.094436 
L 154.215905 207.434766 
L 154.724194 207.525784 
L 154.978339 207.434106 
L 157.011496 208.368034 
L 157.265641 208.407607 
L 157.519786 208.312631 
L 159.298798 208.881166 
L 159.552943 209.048033 
L 160.061232 209.028246 
L 160.315377 209.043416 
L 160.569521 209.175327 
L 161.077811 209.144328 
L 161.5861 209.520273 
L 161.840245 209.373193 
L 162.602679 209.711544 
L 163.110968 209.678566 
L 164.127547 209.803881 
L 164.381691 209.993833 
L 164.889981 210.043299 
L 165.144125 210.016917 
L 165.652414 210.256994 
L 166.923138 210.398798 
L 167.685572 210.628982 
L 167.939716 210.592047 
L 168.193861 210.797828 
L 168.448006 210.784637 
L 168.70215 210.88423 
L 168.956295 210.850592 
L 169.21044 210.985801 
L 169.464584 210.927101 
L 169.972874 211.146732 
L 170.227018 211.093968 
L 170.989452 211.392086 
L 171.243597 211.281281 
L 172.006031 211.434297 
L 180.392804 212.815402 
L 181.155238 212.872123 
L 181.409383 212.988864 
L 181.917672 213.032395 
L 184.204974 213.184092 
L 184.459119 213.350959 
L 185.221553 213.370086 
L 186.238131 213.490125 
L 187.25471 213.625333 
L 187.762999 213.650396 
L 188.271289 213.71899 
L 188.525433 213.646439 
L 189.033723 213.709097 
L 189.542012 213.802753 
L 189.796157 213.749989 
L 190.304446 213.816604 
L 192.083458 213.939281 
L 192.337603 214.033597 
L 193.100037 214.005236 
L 195.387339 214.099552 
L 196.149773 214.150997 
L 205.29898 214.402287 
L 206.315559 214.390415 
L 211.144307 214.485391 
L 211.906741 214.460328 
L 213.177465 214.506497 
L 216.73549 214.534198 
L 226.647131 214.590919 
L 228.934433 214.615982 
L 233.000748 214.627854 
L 233.763181 214.645003 
L 238.846075 214.670066 
L 245.199691 214.69315 
L 251.299163 214.705022 
L 312.293879 214.75317 
L 332.371307 214.753829 
L 332.371307 214.753829 
" clip-path="url(#p43d3f0d553)" style="fill: none; stroke: #1f77b4; stroke-width: 1.5; stroke-linecap: square"/>
   </g>
   <g id="patch_3">
    <path d="M 66.053125 223.918125 
L 66.053125 22.318125 
" style="fill: none; stroke: #000000; stroke-width: 0.8; stroke-linejoin: miter; stroke-linecap: square"/>
   </g>
   <g id="patch_4">
    <path d="M 345.053125 223.918125 
L 345.053125 22.318125 
" style="fill: none; stroke: #000000; stroke-width: 0.8; stroke-linejoin: miter; stroke-linecap: square"/>
   </g>
   <g id="patch_5">
    <path d="M 66.053125 223.918125 
L 345.053125 223.918125 
" style="fill: none; stroke: #000000; stroke-width: 0.8; stroke-linejoin: miter; stroke-linecap: square"/>
   </g>
   <g id="patch_6">
    <path d="M 66.053125 22.318125 
L 345.053125 22.318125 
" style="fill: none; stroke: #000000; stroke-width: 0.8; stroke-linejoin: miter; stroke-linecap: square"/>
   </g>
   <g id="text_15">
    <text style="font-size: 12px; font-family: 'DejaVu Sans', 'Bitstream Vera Sans', 'Computer Modern Sans Serif', 'Lucida Grande', 'Verdana', 'Geneva', 'Lucid', 'Arial', 'Helvetica', 'Avant Garde', sans-serif; text-anchor: middle" x="205.553125" y="16.318125" transform="rotate(-0 205.553125 16.318125)">Sample1_test</text>
   </g>
  </g>
  <g id="axes_2">
   <g id="patch_7">
    <path d="M 66.053125 465.838125 
L 345.053125 465.838125 
L 345.053125 264.238125 
L 66.053125 264.238125 
z
" style="fill: #ffffff"/>
   </g>
   <g id="matplotlib.axis_3">
    <g id="xtick_7">
     <g id="line2d_14">
      <g>
       <use xlink:href="#m5b4b72d6d6" x="78.480799" y="465.838125" style="stroke: #000000; stroke-width: 0.8"/>
      </g>
     </g>
     <g id="text_16">
      <text style="font-size: 10px; font-family: 'DejaVu Sans', 'Bitstream Vera Sans', 'Computer Modern Sans Serif', 'Lucida Grande', 'Verdana', 'Geneva', 'Lucid', 'Arial', 'Helvetica', 'Avant Garde', sans-serif; text-anchor: middle" x="78.480799" y="480.436562" transform="rotate(-0 78.480799 480.436562)">0</text>
     </g>
    </g>
    <g id="xtick_8">
     <g id="line2d_15">
      <g>
       <use xlink:href="#m5b4b72d6d6" x="129.309729" y="465.838125" style="stroke: #000000; stroke-width: 0.8"/>
      </g>
     </g>
     <g id="text_17">
      <text style="font-size: 10px; font-family: 'DejaVu Sans', 'Bitstream Vera Sans', 'Computer Modern Sans Serif', 'Lucida Grande', 'Verdana', 'Geneva', 'Lucid', 'Arial', 'Helvetica', 'Avant Garde', sans-serif; text-anchor: middle" x="129.309729" y="480.436562" transform="rotate(-0 129.309729 480.436562)">200</text>
     </g>
    </g>
    <g id="xtick_9">
     <g id="line2d_16">
      <g>
       <use xlink:href="#m5b4b72d6d6" x="180.13866" y="465.838125" style="stroke: #000000; stroke-width: 0.8"/>
      </g>
     </g>
     <g id="text_18">
      <text style="font-size: 10px; font-family: 'DejaVu Sans', 'Bitstream Vera Sans', 'Computer Modern Sans Serif', 'Lucida Grande', 'Verdana', 'Geneva', 'Lucid', 'Arial', 'Helvetica', 'Avant Garde', sans-serif; text-anchor: middle" x="180.13866" y="480.436562" transform="rotate(-0 180.13866 480.436562)">400</text>
     </g>
    </g>
    <g id="xtick_10">
     <g id="line2d_17">
      <g>
       <use xlink:href="#m5b4b72d6d6" x="230.96759" y="465.838125" style="stroke: #000000; stroke-width: 0.8"/>
      </g>
     </g>
     <g id="text_19">
      <text style="font-size: 10px; font-family: 'DejaVu Sans', 'Bitstream Vera Sans', 'Computer Modern Sans Serif', 'Lucida Grande', 'Verdana', 'Geneva', 'Lucid', 'Arial', 'Helvetica', 'Avant Garde', sans-serif; text-anchor: middle" x="230.96759" y="480.436562" transform="rotate(-0 230.96759 480.436562)">600</text>
     </g>
    </g>
    <g id="xtick_11">
     <g id="line2d_18">
      <g>
       <use xlink:href="#m5b4b72d6d6" x="281.796521" y="465.838125" style="stroke: #000000; stroke-width: 0.8"/>
      </g>
     </g>
     <g id="text_20">
      <text style="font-size: 10px; font-family: 'DejaVu Sans', 'Bitstream Vera Sans', 'Computer Modern Sans Serif', 'Lucida Grande', 'Verdana', 'Geneva', 'Lucid', 'Arial', 'Helvetica', 'Avant Garde', sans-serif; text-anchor: middle" x="281.796521" y="480.436562" transform="rotate(-0 281.796521 480.436562)">800</text>
     </g>
    </g>
    <g id="xtick_12">
     <g id="line2d_19">
      <g>
       <use xlink:href="#m5b4b72d6d6" x="332.625451" y="465.838125" style="stroke: #000000; stroke-width: 0.8"/>
      </g>
     </g>
     <g id="text_21">
      <text style="font-size: 10px; font-family: 'DejaVu Sans', 'Bitstream Vera Sans', 'Computer Modern Sans Serif', 'Lucida Grande', 'Verdana', 'Geneva', 'Lucid', 'Arial', 'Helvetica', 'Avant Garde', sans-serif; text-anchor: middle" x="332.625451" y="480.436562" transform="rotate(-0 332.625451 480.436562)">1000</text>
     </g>
    </g>
    <g id="text_22">
     <text style="font-size: 10px; font-family: 'DejaVu Sans', 'Bitstream Vera Sans', 'Computer Modern Sans Serif', 'Lucida Grande', 'Verdana', 'Geneva', 'Lucid', 'Arial', 'Helvetica', 'Avant Garde', sans-serif; text-anchor: middle" x="205.553125" y="494.114687" transform="rotate(-0 205.553125 494.114687)">Fragment size</text>
    </g>
   </g>
   <g id="matplotlib.axis_4">
    <g id="ytick_7">
     <g id="line2d_20">
      <g>
       <use xlink:href="#m89e4e9c099" x="66.053125" y="456.67523" style="stroke: #000000; stroke-width: 0.8"/>
      </g>
     </g>
     <g id="text_23">
      <text style="font-size: 10px; font-family: 'DejaVu Sans', 'Bitstream Vera Sans', 'Computer Modern Sans Serif', 'Lucida Grande', 'Verdana', 'Geneva', 'Lucid', 'Arial', 'Helvetica', 'Avant Garde', sans-serif; text-anchor: end" x="59.053125" y="460.474449" transform="rotate(-0 59.053125 460.474449)">0</text>
     </g>
    </g>
    <g id="ytick_8">
     <g id="line2d_21">
      <g>
       <use xlink:href="#m89e4e9c099" x="66.053125" y="419.590877" style="stroke: #000000; stroke-width: 0.8"/>
      </g>
     </g>
     <g id="text_24">
      <text style="font-size: 10px; font-family: 'DejaVu Sans', 'Bitstream Vera Sans', 'Computer Modern Sans Serif', 'Lucida Grande', 'Verdana', 'Geneva', 'Lucid', 'Arial', 'Helvetica', 'Avant Garde', sans-serif; text-anchor: end" x="59.053125" y="423.390096" transform="rotate(-0 59.053125 423.390096)">100000</text>
     </g>
    </g>
    <g id="ytick_9">
     <g id="line2d_22">
      <g>
       <use xlink:href="#m89e4e9c099" x="66.053125" y="382.506524" style="stroke: #000000; stroke-width: 0.8"/>
      </g>
     </g>
     <g id="text_25">
      <text style="font-size: 10px; font-family: 'DejaVu Sans', 'Bitstream Vera Sans', 'Computer Modern Sans Serif', 'Lucida Grande', 'Verdana', 'Geneva', 'Lucid', 'Arial', 'Helvetica', 'Avant Garde', sans-serif; text-anchor: end" x="59.053125" y="386.305743" transform="rotate(-0 59.053125 386.305743)">200000</text>
     </g>
    </g>
    <g id="ytick_10">
     <g id="line2d_23">
      <g>
       <use xlink:href="#m89e4e9c099" x="66.053125" y="345.422171" style="stroke: #000000; stroke-width: 0.8"/>
      </g>
     </g>
     <g id="text_26">
      <text style="font-size: 10px; font-family: 'DejaVu Sans', 'Bitstream Vera Sans', 'Computer Modern Sans Serif', 'Lucida Grande', 'Verdana', 'Geneva', 'Lucid', 'Arial', 'Helvetica', 'Avant Garde', sans-serif; text-anchor: end" x="59.053125" y="349.22139" transform="rotate(-0 59.053125 349.22139)">300000</text>
     </g>
    </g>
    <g id="ytick_11">
     <g id="line2d_24">
      <g>
       <use xlink:href="#m89e4e9c099" x="66.053125" y="308.337818" style="stroke: #000000; stroke-width: 0.8"/>
      </g>
     </g>
     <g id="text_27">
      <text style="font-size: 10px; font-family: 'DejaVu Sans', 'Bitstream Vera Sans', 'Computer Modern Sans Serif', 'Lucida Grande', 'Verdana', 'Geneva', 'Lucid', 'Arial', 'Helvetica', 'Avant Garde', sans-serif; text-anchor: end" x="59.053125" y="312.137037" transform="rotate(-0 59.053125 312.137037)">400000</text>
     </g>
    </g>
    <g id="ytick_12">
     <g id="line2d_25">
      <g>
       <use xlink:href="#m89e4e9c099" x="66.053125" y="271.253465" style="stroke: #000000; stroke-width: 0.8"/>
      </g>
     </g>
     <g id="text_28">
      <text style="font-size: 10px; font-family: 'DejaVu Sans', 'Bitstream Vera Sans', 'Computer Modern Sans Serif', 'Lucida Grande', 'Verdana', 'Geneva', 'Lucid', 'Arial', 'Helvetica', 'Avant Garde', sans-serif; text-anchor: end" x="59.053125" y="275.052684" transform="rotate(-0 59.053125 275.052684)">500000</text>
     </g>
    </g>
    <g id="text_29">
     <text style="font-size: 10px; font-family: 'DejaVu Sans', 'Bitstream Vera Sans', 'Computer Modern Sans Serif', 'Lucida Grande', 'Verdana', 'Geneva', 'Lucid', 'Arial', 'Helvetica', 'Avant Garde', sans-serif; text-anchor: middle" x="14.798438" y="365.038125" transform="rotate(-90 14.798438 365.038125)">Count</text>
    </g>
   </g>
   <g id="line2d_26">
    <path d="M 78.734943 456.673747 
L 82.547113 456.638146 
L 82.801258 456.113773 
L 83.055402 454.885169 
L 83.563692 450.04974 
L 84.071981 434.98793 
L 84.834415 410.201861 
L 85.342704 369.674225 
L 85.596849 370.407012 
L 85.850993 369.839251 
L 86.359283 351.532931 
L 86.613427 340.240745 
L 86.867572 323.512364 
L 87.121717 296.659584 
L 87.375861 281.679731 
L 87.630006 285.362207 
L 88.39244 321.240948 
L 88.646585 319.033687 
L 89.154874 304.904178 
L 89.917308 273.446263 
L 90.171453 273.401761 
L 91.188031 311.947238 
L 91.442176 310.355578 
L 91.950465 299.137932 
L 92.458754 287.864288 
L 92.712899 287.961449 
L 92.967044 294.82465 
L 93.475333 315.969407 
L 93.729478 320.59123 
L 93.983622 319.671538 
L 94.237767 317.717192 
L 94.746056 307.433701 
L 95.000201 305.859841 
L 95.254346 306.58039 
L 95.50849 311.430282 
L 96.01678 330.352573 
L 96.270924 337.096734 
L 96.525069 339.426002 
L 97.033358 333.975344 
L 97.287503 329.496296 
L 97.541647 327.930223 
L 97.795792 328.805043 
L 98.049937 333.310792 
L 98.812371 354.510063 
L 99.066515 358.227398 
L 99.32066 358.123933 
L 99.574805 356.331275 
L 99.828949 352.899489 
L 100.083094 351.071601 
L 100.337239 351.645296 
L 100.591383 353.694948 
L 101.607962 374.551189 
L 101.862107 375.366674 
L 102.116251 374.83748 
L 102.624541 370.77526 
L 102.878685 369.679046 
L 103.13283 371.216564 
L 103.641119 379.003165 
L 104.149408 387.658282 
L 104.403553 389.924878 
L 104.657698 389.40273 
L 105.420132 384.893644 
L 105.928421 387.381633 
L 106.945 401.029417 
L 107.199144 401.414352 
L 107.453289 400.09452 
L 107.961578 392.877163 
L 108.724012 398.057106 
L 109.232302 405.847416 
L 109.486446 408.420699 
L 109.740591 409.537309 
L 109.994735 409.487616 
L 110.24888 407.772836 
L 111.265459 395.010626 
L 111.519603 399.138115 
L 111.773748 407.103463 
L 112.282037 414.041204 
L 112.536182 415.806048 
L 112.790327 415.340269 
L 113.044471 413.481972 
L 113.806905 404.477891 
L 114.06105 404.150065 
L 114.315195 405.282992 
L 114.569339 405.077545 
L 114.823484 407.632286 
L 115.331773 415.704808 
L 115.585918 415.211586 
L 116.094207 410.333881 
L 116.348352 407.007415 
L 116.602496 406.048784 
L 117.110786 412.128764 
L 117.36493 415.809015 
L 117.619075 417.66657 
L 117.87322 418.204293 
L 118.127364 416.930817 
L 118.889798 408.631709 
L 119.143943 408.625034 
L 119.398088 410.140301 
L 120.160522 418.214306 
L 120.414666 419.24488 
L 120.668811 418.56327 
L 121.1771 415.552762 
L 121.431245 414.68128 
L 121.68539 415.210473 
L 121.939534 416.147224 
L 122.956113 422.263176 
L 123.210257 422.355887 
L 123.972691 420.488689 
L 124.226836 420.292142 
L 125.497559 423.708724 
L 125.751704 423.519964 
L 126.005849 423.882279 
L 126.514138 423.862253 
L 127.530717 425.256996 
L 128.039006 425.580371 
L 128.80144 425.530678 
L 129.818018 428.440687 
L 130.072163 428.900904 
L 130.834597 428.886441 
L 131.088742 428.728091 
L 132.867754 432.701679 
L 133.121899 432.900822 
L 133.376044 432.844825 
L 133.630188 432.936053 
L 134.392622 434.076396 
L 135.409201 436.180563 
L 135.663345 436.17055 
L 135.91749 436.52656 
L 136.171635 436.509501 
L 136.679924 436.982326 
L 137.442358 438.195355 
L 137.950647 438.998603 
L 138.967226 439.928307 
L 139.221371 439.89011 
L 139.72966 440.643294 
L 139.983805 440.82204 
L 140.492094 441.739878 
L 140.746238 441.986118 
L 141.254528 442.208253 
L 141.508672 442.438547 
L 141.762817 442.469327 
L 142.016962 442.830529 
L 142.271106 442.990362 
L 142.779396 443.695336 
L 143.795974 444.371754 
L 144.050119 444.433685 
L 144.304264 444.663608 
L 144.812553 444.728877 
L 145.320842 445.348556 
L 146.337421 446.085422 
L 147.353999 446.130665 
L 147.862289 446.622404 
L 148.116433 446.723644 
L 148.370578 447.02069 
L 149.133012 447.267301 
L 150.149591 447.19202 
L 150.65788 447.623681 
L 151.166169 448.053489 
L 151.928603 448.094653 
L 152.182748 447.845817 
L 152.436893 447.80317 
L 153.199326 448.190701 
L 153.453471 448.305663 
L 153.96176 448.681698 
L 154.215905 448.817056 
L 155.486628 448.530765 
L 155.740773 448.576008 
L 156.503207 449.063667 
L 157.011496 449.23203 
L 157.265641 449.238705 
L 157.519786 449.095559 
L 158.28222 449.249459 
L 158.790509 449.408922 
L 159.044654 449.453423 
L 159.552943 449.786441 
L 160.315377 449.675559 
L 162.602679 450.171376 
L 162.856823 450.11575 
L 163.365113 450.291901 
L 163.619257 450.34864 
L 163.873402 450.268908 
L 164.635836 450.5641 
L 165.144125 450.622693 
L 166.160704 450.840749 
L 170.481163 451.751541 
L 170.735308 451.880223 
L 170.989452 451.819776 
L 171.497742 451.989993 
L 171.751886 451.991477 
L 172.006031 452.153164 
L 172.260175 452.104955 
L 173.276754 452.354532 
L 175.055767 452.757639 
L 175.564056 452.798432 
L 181.917672 454.08118 
L 182.171817 454.034083 
L 183.188396 454.304057 
L 183.950829 454.386755 
L 184.713263 454.543622 
L 185.475697 454.621128 
L 188.271289 454.988263 
L 189.542012 455.073928 
L 190.304446 455.186294 
L 194.624905 455.541932 
L 195.387339 455.555654 
L 196.149773 455.627968 
L 199.199509 455.803377 
L 199.961943 455.795589 
L 202.757534 455.904988 
L 234.271471 456.396727 
L 236.558773 456.416011 
L 237.575351 456.430103 
L 240.625087 456.440116 
L 242.149955 456.453095 
L 244.437257 456.470525 
L 249.011861 456.491663 
L 251.553307 456.52133 
L 252.82403 456.516138 
L 274.172181 456.586228 
L 276.459483 456.596611 
L 308.227565 456.659284 
L 321.697231 456.66633 
L 331.863018 456.671893 
L 332.371307 456.668555 
L 332.371307 456.668555 
" clip-path="url(#p27daa51eb1)" style="fill: none; stroke: #1f77b4; stroke-width: 1.5; stroke-linecap: square"/>
   </g>
   <g id="patch_8">
    <path d="M 66.053125 465.838125 
L 66.053125 264.238125 
" style="fill: none; stroke: #000000; stroke-width: 0.8; stroke-linejoin: miter; stroke-linecap: square"/>
   </g>
   <g id="patch_9">
    <path d="M 345.053125 465.838125 
L 345.053125 264.238125 
" style="fill: none; stroke: #000000; stroke-width: 0.8; stroke-linejoin: miter; stroke-linecap: square"/>
   </g>
   <g id="patch_10">
    <path d="M 66.053125 465.838125 
L 345.053125 465.838125 
" style="fill: none; stroke: #000000; stroke-width: 0.8; stroke-linejoin: miter; stroke-linecap: square"/>
   </g>
   <g id="patch_11">
    <path d="M 66.053125 264.238125 
L 345.053125 264.238125 
" style="fill: none; stroke: #000000; stroke-width: 0.8; stroke-linejoin: miter; stroke-linecap: square"/>
   </g>
   <g id="text_30">
    <text style="font-size: 12px; font-family: 'DejaVu Sans', 'Bitstream Vera Sans', 'Computer Modern Sans Serif', 'Lucida Grande', 'Verdana', 'Geneva', 'Lucid', 'Arial', 'Helvetica', 'Avant Garde', sans-serif; text-anchor: middle" x="205.553125" y="258.238125" transform="rotate(-0 205.553125 258.238125)">Sample2_test</text>
   </g>
  </g>
 </g>
 <defs>
  <clipPath id="p43d3f0d553">
   <rect x="66.053125" y="22.318125" width="279" height="201.6"/>
  </clipPath>
  <clipPath id="p27daa51eb1">
   <rect x="66.053125" y="264.238125" width="279" height="201.6"/>
  </clipPath>
 </defs>
</svg>
