<?xml version="1.0" encoding="utf-8" standalone="no"?>
<!DOCTYPE svg PUBLIC "-//W3C//DTD SVG 1.1//EN"
  "http://www.w3.org/Graphics/SVG/1.1/DTD/svg11.dtd">
<svg xmlns:xlink="http://www.w3.org/1999/xlink" width="626.31774pt" height="281.634375pt" viewBox="0 0 626.31774 281.634375" xmlns="http://www.w3.org/2000/svg" version="1.1">
 <metadata>
  <rdf:RDF xmlns:dc="http://purl.org/dc/elements/1.1/" xmlns:cc="http://creativecommons.org/ns#" xmlns:rdf="http://www.w3.org/1999/02/22-rdf-syntax-ns#">
   <cc:Work>
    <dc:type rdf:resource="http://purl.org/dc/dcmitype/StillImage"/>
    <dc:date>2025-09-01T12:33:44.946493</dc:date>
    <dc:format>image/svg+xml</dc:format>
    <dc:creator>
     <cc:Agent>
      <dc:title>Matplotlib v3.10.5, https://matplotlib.org/</dc:title>
     </cc:Agent>
    </dc:creator>
   </cc:Work>
  </rdf:RDF>
 </metadata>
 <defs>
  <style type="text/css">*{stroke-linejoin: round; stroke-linecap: butt}</style>
 </defs>
 <g id="figure_1">
  <g id="patch_1">
   <path d="M 0 281.634375 
L 626.31774 281.634375 
L 626.31774 0 
L 0 0 
z
" style="fill: #ffffff"/>
  </g>
  <g id="axes_1">
   <g id="patch_2">
    <path d="M 59.690625 244.078125 
L 313.326989 244.078125 
L 313.326989 22.318125 
L 59.690625 22.318125 
z
" style="fill: #ffffff"/>
   </g>
   <g id="matplotlib.axis_1">
    <g id="xtick_1">
     <g id="line2d_1">
      <defs>
       <path id="m2a83a0ea18" d="M 0 0 
L 0 3.5 
" style="stroke: #000000; stroke-width: 0.8"/>
      </defs>
      <g>
       <use xlink:href="#m2a83a0ea18" x="70.98851" y="244.078125" style="stroke: #000000; stroke-width: 0.8"/>
      </g>
     </g>
     <g id="text_1">
      <text style="font-size: 10px; font-family: 'DejaVu Sans', 'Bitstream Vera Sans', 'Computer Modern Sans Serif', 'Lucida Grande', 'Verdana', 'Geneva', 'Lucid', 'Arial', 'Helvetica', 'Avant Garde', sans-serif; text-anchor: middle" x="70.98851" y="258.676562" transform="rotate(-0 70.98851 258.676562)">0</text>
     </g>
    </g>
    <g id="xtick_2">
     <g id="line2d_2">
      <g>
       <use xlink:href="#m2a83a0ea18" x="117.196629" y="244.078125" style="stroke: #000000; stroke-width: 0.8"/>
      </g>
     </g>
     <g id="text_2">
      <text style="font-size: 10px; font-family: 'DejaVu Sans', 'Bitstream Vera Sans', 'Computer Modern Sans Serif', 'Lucida Grande', 'Verdana', 'Geneva', 'Lucid', 'Arial', 'Helvetica', 'Avant Garde', sans-serif; text-anchor: middle" x="117.196629" y="258.676562" transform="rotate(-0 117.196629 258.676562)">200</text>
     </g>
    </g>
    <g id="xtick_3">
     <g id="line2d_3">
      <g>
       <use xlink:href="#m2a83a0ea18" x="163.404747" y="244.078125" style="stroke: #000000; stroke-width: 0.8"/>
      </g>
     </g>
     <g id="text_3">
      <text style="font-size: 10px; font-family: 'DejaVu Sans', 'Bitstream Vera Sans', 'Computer Modern Sans Serif', 'Lucida Grande', 'Verdana', 'Geneva', 'Lucid', 'Arial', 'Helvetica', 'Avant Garde', sans-serif; text-anchor: middle" x="163.404747" y="258.676562" transform="rotate(-0 163.404747 258.676562)">400</text>
     </g>
    </g>
    <g id="xtick_4">
     <g id="line2d_4">
      <g>
       <use xlink:href="#m2a83a0ea18" x="209.612866" y="244.078125" style="stroke: #000000; stroke-width: 0.8"/>
      </g>
     </g>
     <g id="text_4">
      <text style="font-size: 10px; font-family: 'DejaVu Sans', 'Bitstream Vera Sans', 'Computer Modern Sans Serif', 'Lucida Grande', 'Verdana', 'Geneva', 'Lucid', 'Arial', 'Helvetica', 'Avant Garde', sans-serif; text-anchor: middle" x="209.612866" y="258.676562" transform="rotate(-0 209.612866 258.676562)">600</text>
     </g>
    </g>
    <g id="xtick_5">
     <g id="line2d_5">
      <g>
       <use xlink:href="#m2a83a0ea18" x="255.820985" y="244.078125" style="stroke: #000000; stroke-width: 0.8"/>
      </g>
     </g>
     <g id="text_5">
      <text style="font-size: 10px; font-family: 'DejaVu Sans', 'Bitstream Vera Sans', 'Computer Modern Sans Serif', 'Lucida Grande', 'Verdana', 'Geneva', 'Lucid', 'Arial', 'Helvetica', 'Avant Garde', sans-serif; text-anchor: middle" x="255.820985" y="258.676562" transform="rotate(-0 255.820985 258.676562)">800</text>
     </g>
    </g>
    <g id="xtick_6">
     <g id="line2d_6">
      <g>
       <use xlink:href="#m2a83a0ea18" x="302.029104" y="244.078125" style="stroke: #000000; stroke-width: 0.8"/>
      </g>
     </g>
     <g id="text_6">
      <text style="font-size: 10px; font-family: 'DejaVu Sans', 'Bitstream Vera Sans', 'Computer Modern Sans Serif', 'Lucida Grande', 'Verdana', 'Geneva', 'Lucid', 'Arial', 'Helvetica', 'Avant Garde', sans-serif; text-anchor: middle" x="302.029104" y="258.676562" transform="rotate(-0 302.029104 258.676562)">1000</text>
     </g>
    </g>
    <g id="text_7">
     <text style="font-size: 10px; font-family: 'DejaVu Sans', 'Bitstream Vera Sans', 'Computer Modern Sans Serif', 'Lucida Grande', 'Verdana', 'Geneva', 'Lucid', 'Arial', 'Helvetica', 'Avant Garde', sans-serif; text-anchor: middle" x="186.508807" y="272.354687" transform="rotate(-0 186.508807 272.354687)">Fragment size</text>
    </g>
   </g>
   <g id="matplotlib.axis_2">
    <g id="ytick_1">
     <g id="line2d_7">
      <defs>
       <path id="mf07f1703a4" d="M 0 0 
L -3.5 0 
" style="stroke: #000000; stroke-width: 0.8"/>
      </defs>
      <g>
       <use xlink:href="#mf07f1703a4" x="59.690625" y="233.998125" style="stroke: #000000; stroke-width: 0.8"/>
      </g>
     </g>
     <g id="text_8">
      <text style="font-size: 10px; font-family: 'DejaVu Sans', 'Bitstream Vera Sans', 'Computer Modern Sans Serif', 'Lucida Grande', 'Verdana', 'Geneva', 'Lucid', 'Arial', 'Helvetica', 'Avant Garde', sans-serif; text-anchor: end" x="52.690625" y="237.797344" transform="rotate(-0 52.690625 237.797344)">0</text>
     </g>
    </g>
    <g id="ytick_2">
     <g id="line2d_8">
      <g>
       <use xlink:href="#mf07f1703a4" x="59.690625" y="204.506332" style="stroke: #000000; stroke-width: 0.8"/>
      </g>
     </g>
     <g id="text_9">
      <text style="font-size: 10px; font-family: 'DejaVu Sans', 'Bitstream Vera Sans', 'Computer Modern Sans Serif', 'Lucida Grande', 'Verdana', 'Geneva', 'Lucid', 'Arial', 'Helvetica', 'Avant Garde', sans-serif; text-anchor: end" x="52.690625" y="208.305551" transform="rotate(-0 52.690625 208.305551)">10000</text>
     </g>
    </g>
    <g id="ytick_3">
     <g id="line2d_9">
      <g>
       <use xlink:href="#mf07f1703a4" x="59.690625" y="175.014539" style="stroke: #000000; stroke-width: 0.8"/>
      </g>
     </g>
     <g id="text_10">
      <text style="font-size: 10px; font-family: 'DejaVu Sans', 'Bitstream Vera Sans', 'Computer Modern Sans Serif', 'Lucida Grande', 'Verdana', 'Geneva', 'Lucid', 'Arial', 'Helvetica', 'Avant Garde', sans-serif; text-anchor: end" x="52.690625" y="178.813757" transform="rotate(-0 52.690625 178.813757)">20000</text>
     </g>
    </g>
    <g id="ytick_4">
     <g id="line2d_10">
      <g>
       <use xlink:href="#mf07f1703a4" x="59.690625" y="145.522745" style="stroke: #000000; stroke-width: 0.8"/>
      </g>
     </g>
     <g id="text_11">
      <text style="font-size: 10px; font-family: 'DejaVu Sans', 'Bitstream Vera Sans', 'Computer Modern Sans Serif', 'Lucida Grande', 'Verdana', 'Geneva', 'Lucid', 'Arial', 'Helvetica', 'Avant Garde', sans-serif; text-anchor: end" x="52.690625" y="149.321964" transform="rotate(-0 52.690625 149.321964)">30000</text>
     </g>
    </g>
    <g id="ytick_5">
     <g id="line2d_11">
      <g>
       <use xlink:href="#mf07f1703a4" x="59.690625" y="116.030952" style="stroke: #000000; stroke-width: 0.8"/>
      </g>
     </g>
     <g id="text_12">
      <text style="font-size: 10px; font-family: 'DejaVu Sans', 'Bitstream Vera Sans', 'Computer Modern Sans Serif', 'Lucida Grande', 'Verdana', 'Geneva', 'Lucid', 'Arial', 'Helvetica', 'Avant Garde', sans-serif; text-anchor: end" x="52.690625" y="119.830171" transform="rotate(-0 52.690625 119.830171)">40000</text>
     </g>
    </g>
    <g id="ytick_6">
     <g id="line2d_12">
      <g>
       <use xlink:href="#mf07f1703a4" x="59.690625" y="86.539159" style="stroke: #000000; stroke-width: 0.8"/>
      </g>
     </g>
     <g id="text_13">
      <text style="font-size: 10px; font-family: 'DejaVu Sans', 'Bitstream Vera Sans', 'Computer Modern Sans Serif', 'Lucida Grande', 'Verdana', 'Geneva', 'Lucid', 'Arial', 'Helvetica', 'Avant Garde', sans-serif; text-anchor: end" x="52.690625" y="90.338378" transform="rotate(-0 52.690625 90.338378)">50000</text>
     </g>
    </g>
    <g id="ytick_7">
     <g id="line2d_13">
      <g>
       <use xlink:href="#mf07f1703a4" x="59.690625" y="57.047366" style="stroke: #000000; stroke-width: 0.8"/>
      </g>
     </g>
     <g id="text_14">
      <text style="font-size: 10px; font-family: 'DejaVu Sans', 'Bitstream Vera Sans', 'Computer Modern Sans Serif', 'Lucida Grande', 'Verdana', 'Geneva', 'Lucid', 'Arial', 'Helvetica', 'Avant Garde', sans-serif; text-anchor: end" x="52.690625" y="60.846585" transform="rotate(-0 52.690625 60.846585)">60000</text>
     </g>
    </g>
    <g id="ytick_8">
     <g id="line2d_14">
      <g>
       <use xlink:href="#mf07f1703a4" x="59.690625" y="27.555573" style="stroke: #000000; stroke-width: 0.8"/>
      </g>
     </g>
     <g id="text_15">
      <text style="font-size: 10px; font-family: 'DejaVu Sans', 'Bitstream Vera Sans', 'Computer Modern Sans Serif', 'Lucida Grande', 'Verdana', 'Geneva', 'Lucid', 'Arial', 'Helvetica', 'Avant Garde', sans-serif; text-anchor: end" x="52.690625" y="31.354791" transform="rotate(-0 52.690625 31.354791)">70000</text>
     </g>
    </g>
    <g id="text_16">
     <text style="font-size: 10px; font-family: 'DejaVu Sans', 'Bitstream Vera Sans', 'Computer Modern Sans Serif', 'Lucida Grande', 'Verdana', 'Geneva', 'Lucid', 'Arial', 'Helvetica', 'Avant Garde', sans-serif; text-anchor: middle" x="14.798438" y="133.198125" transform="rotate(-90 14.798438 133.198125)">Count</text>
    </g>
   </g>
   <g id="line2d_15">
    <path d="M 71.219551 233.998125 
L 74.68516 233.98043 
L 74.9162 233.738597 
L 75.378281 232.511739 
L 75.609322 231.509018 
L 76.764525 205.420577 
L 77.226606 179.456003 
L 77.457647 180.160857 
L 77.688687 177.621613 
L 78.150768 155.095781 
L 78.381809 143.012994 
L 79.074931 77.187311 
L 79.305971 79.236991 
L 79.999093 110.917075 
L 80.230134 105.747164 
L 81.385337 36.969353 
L 81.616377 35.745444 
L 82.309499 80.03032 
L 82.54054 81.879456 
L 82.77158 75.942758 
L 83.464702 41.151289 
L 83.695743 32.398125 
L 83.926783 33.029249 
L 84.850946 81.209992 
L 85.313027 68.85588 
L 86.006149 41.32824 
L 86.237189 41.649701 
L 86.46823 51.311212 
L 87.161352 89.812748 
L 87.392392 91.228354 
L 87.854473 77.225651 
L 88.085514 67.965228 
L 88.316555 63.222947 
L 88.547595 63.028301 
L 88.778636 69.879245 
L 89.471758 104.352202 
L 89.702798 108.489901 
L 89.933839 106.788224 
L 90.164879 101.615364 
L 90.39592 92.747181 
L 90.858001 87.025774 
L 91.089042 91.142828 
L 92.013204 126.565421 
L 92.244245 126.220367 
L 92.475285 122.763929 
L 92.937366 113.028688 
L 93.168407 110.949516 
L 93.399448 112.860584 
L 93.861529 126.002127 
L 94.32361 140.659549 
L 94.554651 144.012766 
L 95.247772 134.542951 
L 95.709854 131.782519 
L 95.940894 135.819945 
L 96.634016 154.034077 
L 96.865057 157.729399 
L 97.096097 158.331031 
L 97.327138 156.744373 
L 97.789219 150.267975 
L 98.020259 149.887531 
L 98.2513 152.217382 
L 99.175462 168.841906 
L 99.406503 170.968265 
L 99.637544 171.286776 
L 100.330665 165.447401 
L 100.561706 164.426985 
L 100.792747 165.223263 
L 101.716909 180.780184 
L 101.94795 182.130908 
L 102.17899 181.2609 
L 102.641071 177.63341 
L 103.103153 177.674698 
L 103.334193 179.199424 
L 103.565234 182.455318 
L 103.796274 183.522921 
L 104.258356 188.748867 
L 104.489396 189.285617 
L 104.720437 187.905401 
L 104.951477 187.200548 
L 105.413558 185.295378 
L 105.644599 185.678771 
L 106.568761 194.243188 
L 106.799802 193.886337 
L 107.261883 191.995913 
L 107.723964 187.460075 
L 107.955005 188.333032 
L 108.417086 193.830303 
L 108.648127 194.892007 
L 108.879167 197.404708 
L 109.110208 197.271995 
L 109.572289 193.252264 
L 109.80333 192.376357 
L 110.03437 192.125677 
L 110.958533 199.864324 
L 111.189573 200.660602 
L 111.420614 200.781518 
L 111.651654 200.256564 
L 112.344776 196.906297 
L 112.575817 198.410378 
L 112.806857 198.985468 
L 113.037898 201.108877 
L 113.268939 202.185328 
L 113.73102 202.919673 
L 114.193101 201.256336 
L 114.424142 201.489321 
L 114.655182 200.949622 
L 115.579345 203.860462 
L 115.810385 203.79558 
L 116.041426 203.152658 
L 116.272466 203.105472 
L 116.503507 203.477068 
L 116.734548 202.701434 
L 117.65871 206.154923 
L 118.120791 206.0576 
L 118.351832 206.420349 
L 118.582872 205.865903 
L 118.813913 205.886548 
L 119.044953 206.02221 
L 119.507035 207.145847 
L 119.738075 207.263814 
L 120.200156 209.192578 
L 120.431197 209.661497 
L 120.662238 209.593666 
L 120.893278 208.906507 
L 121.124319 209.744074 
L 121.355359 209.43441 
L 122.048481 211.115443 
L 122.279522 211.286495 
L 122.972644 212.696203 
L 123.203684 212.887899 
L 123.434725 212.256775 
L 123.665765 212.926239 
L 123.896806 213.200512 
L 124.358887 214.622017 
L 124.589928 214.421473 
L 125.51409 216.432813 
L 125.745131 216.073013 
L 125.976171 216.668747 
L 126.207212 216.052369 
L 126.669293 217.532857 
L 127.593455 218.939615 
L 127.824496 218.818699 
L 128.055537 219.588435 
L 128.286577 219.219787 
L 128.517618 219.668063 
L 128.748658 219.517655 
L 129.21074 220.605902 
L 129.44178 220.765157 
L 129.672821 221.216382 
L 130.134902 221.61747 
L 130.365943 221.97727 
L 130.596983 221.847506 
L 130.828024 222.174865 
L 131.059064 222.281036 
L 131.290105 222.741108 
L 131.521146 222.401952 
L 131.752186 222.977042 
L 131.983227 222.991788 
L 132.445308 223.472504 
L 133.36947 224.195053 
L 133.600511 224.345461 
L 133.831551 224.77899 
L 134.062592 224.776041 
L 134.755714 225.528082 
L 134.986754 225.507438 
L 135.217795 225.923272 
L 135.448836 225.578218 
L 135.679876 225.846593 
L 135.910917 225.890831 
L 136.372998 226.241783 
L 136.835079 226.598634 
L 137.29716 227.158978 
L 137.528201 226.982027 
L 137.759242 227.026265 
L 137.990282 227.303488 
L 138.452363 227.262199 
L 138.683404 227.041011 
L 138.914445 227.675085 
L 139.145485 227.389014 
L 139.376526 227.50993 
L 139.607566 227.961155 
L 139.838607 227.913968 
L 140.069648 228.111563 
L 140.300688 227.949358 
L 140.531729 228.152852 
L 140.99381 228.117461 
L 141.22485 228.235429 
L 141.455891 228.200038 
L 141.686932 228.692551 
L 141.917972 228.881299 
L 142.149013 228.542143 
L 142.380053 228.745637 
L 142.611094 228.66306 
L 143.073175 229.005164 
L 143.304216 228.896045 
L 143.766297 229.102487 
L 143.997338 229.090691 
L 144.228378 229.211607 
L 144.459419 229.465236 
L 144.690459 229.441643 
L 144.9215 229.143776 
L 145.152541 229.432795 
L 145.383581 229.423948 
L 145.614622 229.600899 
L 145.845662 229.37971 
L 146.076703 229.715917 
L 146.307744 229.518322 
L 147.000865 229.786697 
L 147.462947 229.783748 
L 147.693987 230.122903 
L 147.925028 230.111107 
L 148.156068 229.975444 
L 148.618149 230.332295 
L 149.542312 230.358838 
L 150.466474 230.621315 
L 150.697515 230.532839 
L 151.390637 230.845452 
L 151.621677 230.612467 
L 152.314799 230.904436 
L 152.54584 230.813011 
L 153.470002 230.860198 
L 153.701043 231.258337 
L 154.394164 231.096133 
L 154.625205 231.219998 
L 155.087286 231.181659 
L 155.780408 231.379254 
L 156.011448 231.187557 
L 156.70457 231.509018 
L 156.935611 231.379254 
L 157.166651 231.783291 
L 157.397692 231.603391 
L 158.090814 231.703663 
L 158.783936 231.694816 
L 159.014976 231.892411 
L 159.477057 231.736104 
L 159.708098 231.833427 
L 159.939139 231.756749 
L 160.40122 231.983836 
L 160.863301 232.007429 
L 161.094342 232.151939 
L 162.018504 232.033972 
L 162.249544 232.249262 
L 162.942666 232.140142 
L 163.404747 232.455704 
L 163.635788 232.25516 
L 164.097869 232.567773 
L 164.55995 232.411467 
L 164.790991 232.496993 
L 165.253072 232.467501 
L 165.484113 232.538281 
L 165.715153 232.488145 
L 165.946194 232.665096 
L 166.639316 232.626757 
L 167.563478 232.768317 
L 167.794519 232.691639 
L 168.025559 232.75947 
L 168.2566 232.688689 
L 168.487641 232.815504 
L 168.718681 232.786012 
L 169.180762 232.883335 
L 169.873884 232.844996 
L 170.104925 232.977709 
L 170.567006 232.977709 
L 170.798046 233.004252 
L 171.029087 232.889234 
L 171.260128 233.004252 
L 171.953249 232.945268 
L 172.18429 233.092727 
L 172.415331 232.909878 
L 173.339493 233.107473 
L 173.801574 233.075032 
L 174.032615 233.22544 
L 174.263655 233.145812 
L 174.956777 233.151711 
L 176.343021 233.240186 
L 176.574061 233.399442 
L 176.805102 233.243135 
L 178.422386 233.305068 
L 179.115508 233.408289 
L 179.346548 233.293271 
L 182.581117 233.437781 
L 183.274239 233.414187 
L 183.505279 233.493815 
L 183.73632 233.417137 
L 184.429441 233.51151 
L 184.660482 233.428933 
L 184.891523 233.541002 
L 185.584644 233.484968 
L 185.815685 233.579342 
L 186.277766 233.523307 
L 187.201929 233.493815 
L 187.89505 233.532155 
L 189.512335 233.538053 
L 189.743375 233.629478 
L 189.974416 233.51151 
L 190.205456 233.576392 
L 190.667538 233.546901 
L 191.129619 233.591138 
L 192.746903 233.573443 
L 192.977943 233.661919 
L 193.440025 233.532155 
L 193.902106 233.611783 
L 194.133146 233.570494 
L 194.364187 233.650122 
L 194.595228 233.588189 
L 195.057309 233.650122 
L 195.51939 233.602935 
L 196.674593 233.605884 
L 197.136674 233.676664 
L 197.367715 233.611783 
L 197.598755 233.667817 
L 197.829796 233.529205 
L 198.291877 233.653071 
L 200.371242 233.679614 
L 201.064364 233.685512 
L 201.295405 233.720902 
L 201.526445 233.611783 
L 201.988527 233.750394 
L 202.912689 233.670766 
L 203.37477 233.661919 
L 205.454135 233.715004 
L 206.378298 233.703207 
L 206.609338 233.797581 
L 207.30246 233.753343 
L 217.699287 233.812327 
L 218.161368 233.868361 
L 219.547612 233.841818 
L 222.089058 233.903751 
L 222.78218 233.87131 
L 225.554667 233.889005 
L 226.940911 233.891955 
L 228.096114 233.894904 
L 229.482357 233.915548 
L 231.330682 233.930294 
L 301.798063 233.998125 
L 301.798063 233.998125 
" clip-path="url(#pe5e8becaf9)" style="fill: none; stroke: #1f77b4; stroke-width: 1.5; stroke-linecap: square"/>
   </g>
   <g id="patch_3">
    <path d="M 59.690625 244.078125 
L 59.690625 22.318125 
" style="fill: none; stroke: #000000; stroke-width: 0.8; stroke-linejoin: miter; stroke-linecap: square"/>
   </g>
   <g id="patch_4">
    <path d="M 313.326989 244.078125 
L 313.326989 22.318125 
" style="fill: none; stroke: #000000; stroke-width: 0.8; stroke-linejoin: miter; stroke-linecap: square"/>
   </g>
   <g id="patch_5">
    <path d="M 59.690625 244.078125 
L 313.326989 244.078125 
" style="fill: none; stroke: #000000; stroke-width: 0.8; stroke-linejoin: miter; stroke-linecap: square"/>
   </g>
   <g id="patch_6">
    <path d="M 59.690625 22.318125 
L 313.326989 22.318125 
" style="fill: none; stroke: #000000; stroke-width: 0.8; stroke-linejoin: miter; stroke-linecap: square"/>
   </g>
   <g id="text_17">
    <text style="font-size: 12px; font-family: 'DejaVu Sans', 'Bitstream Vera Sans', 'Computer Modern Sans Serif', 'Lucida Grande', 'Verdana', 'Geneva', 'Lucid', 'Arial', 'Helvetica', 'Avant Garde', sans-serif; text-anchor: middle" x="186.508807" y="16.318125" transform="rotate(-0 186.508807 16.318125)">Sample1_test</text>
   </g>
  </g>
  <g id="axes_2">
   <g id="patch_7">
    <path d="M 364.054261 244.078125 
L 617.690625 244.078125 
L 617.690625 22.318125 
L 364.054261 22.318125 
z
" style="fill: #ffffff"/>
   </g>
   <g id="matplotlib.axis_3">
    <g id="xtick_7">
     <g id="line2d_16">
      <g>
       <use xlink:href="#m2a83a0ea18" x="375.352146" y="244.078125" style="stroke: #000000; stroke-width: 0.8"/>
      </g>
     </g>
     <g id="text_18">
      <text style="font-size: 10px; font-family: 'DejaVu Sans', 'Bitstream Vera Sans', 'Computer Modern Sans Serif', 'Lucida Grande', 'Verdana', 'Geneva', 'Lucid', 'Arial', 'Helvetica', 'Avant Garde', sans-serif; text-anchor: middle" x="375.352146" y="258.676562" transform="rotate(-0 375.352146 258.676562)">0</text>
     </g>
    </g>
    <g id="xtick_8">
     <g id="line2d_17">
      <g>
       <use xlink:href="#m2a83a0ea18" x="421.560265" y="244.078125" style="stroke: #000000; stroke-width: 0.8"/>
      </g>
     </g>
     <g id="text_19">
      <text style="font-size: 10px; font-family: 'DejaVu Sans', 'Bitstream Vera Sans', 'Computer Modern Sans Serif', 'Lucida Grande', 'Verdana', 'Geneva', 'Lucid', 'Arial', 'Helvetica', 'Avant Garde', sans-serif; text-anchor: middle" x="421.560265" y="258.676562" transform="rotate(-0 421.560265 258.676562)">200</text>
     </g>
    </g>
    <g id="xtick_9">
     <g id="line2d_18">
      <g>
       <use xlink:href="#m2a83a0ea18" x="467.768384" y="244.078125" style="stroke: #000000; stroke-width: 0.8"/>
      </g>
     </g>
     <g id="text_20">
      <text style="font-size: 10px; font-family: 'DejaVu Sans', 'Bitstream Vera Sans', 'Computer Modern Sans Serif', 'Lucida Grande', 'Verdana', 'Geneva', 'Lucid', 'Arial', 'Helvetica', 'Avant Garde', sans-serif; text-anchor: middle" x="467.768384" y="258.676562" transform="rotate(-0 467.768384 258.676562)">400</text>
     </g>
    </g>
    <g id="xtick_10">
     <g id="line2d_19">
      <g>
       <use xlink:href="#m2a83a0ea18" x="513.976503" y="244.078125" style="stroke: #000000; stroke-width: 0.8"/>
      </g>
     </g>
     <g id="text_21">
      <text style="font-size: 10px; font-family: 'DejaVu Sans', 'Bitstream Vera Sans', 'Computer Modern Sans Serif', 'Lucida Grande', 'Verdana', 'Geneva', 'Lucid', 'Arial', 'Helvetica', 'Avant Garde', sans-serif; text-anchor: middle" x="513.976503" y="258.676562" transform="rotate(-0 513.976503 258.676562)">600</text>
     </g>
    </g>
    <g id="xtick_11">
     <g id="line2d_20">
      <g>
       <use xlink:href="#m2a83a0ea18" x="560.184621" y="244.078125" style="stroke: #000000; stroke-width: 0.8"/>
      </g>
     </g>
     <g id="text_22">
      <text style="font-size: 10px; font-family: 'DejaVu Sans', 'Bitstream Vera Sans', 'Computer Modern Sans Serif', 'Lucida Grande', 'Verdana', 'Geneva', 'Lucid', 'Arial', 'Helvetica', 'Avant Garde', sans-serif; text-anchor: middle" x="560.184621" y="258.676562" transform="rotate(-0 560.184621 258.676562)">800</text>
     </g>
    </g>
    <g id="xtick_12">
     <g id="line2d_21">
      <g>
       <use xlink:href="#m2a83a0ea18" x="606.39274" y="244.078125" style="stroke: #000000; stroke-width: 0.8"/>
      </g>
     </g>
     <g id="text_23">
      <text style="font-size: 10px; font-family: 'DejaVu Sans', 'Bitstream Vera Sans', 'Computer Modern Sans Serif', 'Lucida Grande', 'Verdana', 'Geneva', 'Lucid', 'Arial', 'Helvetica', 'Avant Garde', sans-serif; text-anchor: middle" x="606.39274" y="258.676562" transform="rotate(-0 606.39274 258.676562)">1000</text>
     </g>
    </g>
    <g id="text_24">
     <text style="font-size: 10px; font-family: 'DejaVu Sans', 'Bitstream Vera Sans', 'Computer Modern Sans Serif', 'Lucida Grande', 'Verdana', 'Geneva', 'Lucid', 'Arial', 'Helvetica', 'Avant Garde', sans-serif; text-anchor: middle" x="490.872443" y="272.354687" transform="rotate(-0 490.872443 272.354687)">Fragment size</text>
    </g>
   </g>
   <g id="matplotlib.axis_4">
    <g id="ytick_9">
     <g id="line2d_22">
      <g>
       <use xlink:href="#mf07f1703a4" x="364.054261" y="233.998125" style="stroke: #000000; stroke-width: 0.8"/>
      </g>
     </g>
     <g id="text_25">
      <text style="font-size: 10px; font-family: 'DejaVu Sans', 'Bitstream Vera Sans', 'Computer Modern Sans Serif', 'Lucida Grande', 'Verdana', 'Geneva', 'Lucid', 'Arial', 'Helvetica', 'Avant Garde', sans-serif; text-anchor: end" x="357.054261" y="237.797344" transform="rotate(-0 357.054261 237.797344)">0</text>
     </g>
    </g>
    <g id="ytick_10">
     <g id="line2d_23">
      <g>
       <use xlink:href="#mf07f1703a4" x="364.054261" y="200.720639" style="stroke: #000000; stroke-width: 0.8"/>
      </g>
     </g>
     <g id="text_26">
      <text style="font-size: 10px; font-family: 'DejaVu Sans', 'Bitstream Vera Sans', 'Computer Modern Sans Serif', 'Lucida Grande', 'Verdana', 'Geneva', 'Lucid', 'Arial', 'Helvetica', 'Avant Garde', sans-serif; text-anchor: end" x="357.054261" y="204.519858" transform="rotate(-0 357.054261 204.519858)">20000</text>
     </g>
    </g>
    <g id="ytick_11">
     <g id="line2d_24">
      <g>
       <use xlink:href="#mf07f1703a4" x="364.054261" y="167.443154" style="stroke: #000000; stroke-width: 0.8"/>
      </g>
     </g>
     <g id="text_27">
      <text style="font-size: 10px; font-family: 'DejaVu Sans', 'Bitstream Vera Sans', 'Computer Modern Sans Serif', 'Lucida Grande', 'Verdana', 'Geneva', 'Lucid', 'Arial', 'Helvetica', 'Avant Garde', sans-serif; text-anchor: end" x="357.054261" y="171.242372" transform="rotate(-0 357.054261 171.242372)">40000</text>
     </g>
    </g>
    <g id="ytick_12">
     <g id="line2d_25">
      <g>
       <use xlink:href="#mf07f1703a4" x="364.054261" y="134.165668" style="stroke: #000000; stroke-width: 0.8"/>
      </g>
     </g>
     <g id="text_28">
      <text style="font-size: 10px; font-family: 'DejaVu Sans', 'Bitstream Vera Sans', 'Computer Modern Sans Serif', 'Lucida Grande', 'Verdana', 'Geneva', 'Lucid', 'Arial', 'Helvetica', 'Avant Garde', sans-serif; text-anchor: end" x="357.054261" y="137.964887" transform="rotate(-0 357.054261 137.964887)">60000</text>
     </g>
    </g>
    <g id="ytick_13">
     <g id="line2d_26">
      <g>
       <use xlink:href="#mf07f1703a4" x="364.054261" y="100.888182" style="stroke: #000000; stroke-width: 0.8"/>
      </g>
     </g>
     <g id="text_29">
      <text style="font-size: 10px; font-family: 'DejaVu Sans', 'Bitstream Vera Sans', 'Computer Modern Sans Serif', 'Lucida Grande', 'Verdana', 'Geneva', 'Lucid', 'Arial', 'Helvetica', 'Avant Garde', sans-serif; text-anchor: end" x="357.054261" y="104.687401" transform="rotate(-0 357.054261 104.687401)">80000</text>
     </g>
    </g>
    <g id="ytick_14">
     <g id="line2d_27">
      <g>
       <use xlink:href="#mf07f1703a4" x="364.054261" y="67.610696" style="stroke: #000000; stroke-width: 0.8"/>
      </g>
     </g>
     <g id="text_30">
      <text style="font-size: 10px; font-family: 'DejaVu Sans', 'Bitstream Vera Sans', 'Computer Modern Sans Serif', 'Lucida Grande', 'Verdana', 'Geneva', 'Lucid', 'Arial', 'Helvetica', 'Avant Garde', sans-serif; text-anchor: end" x="357.054261" y="71.409915" transform="rotate(-0 357.054261 71.409915)">100000</text>
     </g>
    </g>
    <g id="ytick_15">
     <g id="line2d_28">
      <g>
       <use xlink:href="#mf07f1703a4" x="364.054261" y="34.333211" style="stroke: #000000; stroke-width: 0.8"/>
      </g>
     </g>
     <g id="text_31">
      <text style="font-size: 10px; font-family: 'DejaVu Sans', 'Bitstream Vera Sans', 'Computer Modern Sans Serif', 'Lucida Grande', 'Verdana', 'Geneva', 'Lucid', 'Arial', 'Helvetica', 'Avant Garde', sans-serif; text-anchor: end" x="357.054261" y="38.13243" transform="rotate(-0 357.054261 38.13243)">120000</text>
     </g>
    </g>
    <g id="text_32">
     <text style="font-size: 10px; font-family: 'DejaVu Sans', 'Bitstream Vera Sans', 'Computer Modern Sans Serif', 'Lucida Grande', 'Verdana', 'Geneva', 'Lucid', 'Arial', 'Helvetica', 'Avant Garde', sans-serif; text-anchor: middle" x="312.799574" y="133.198125" transform="rotate(-90 312.799574 133.198125)">Count</text>
    </g>
   </g>
   <g id="line2d_29">
    <path d="M 375.583187 233.998125 
L 379.048796 233.978159 
L 379.279836 233.753535 
L 379.741918 232.570521 
L 379.972958 231.572196 
L 381.128161 205.184814 
L 381.590242 179.581117 
L 381.821283 179.547839 
L 382.052324 177.391458 
L 382.514405 154.350127 
L 382.745445 142.47672 
L 383.438567 76.467499 
L 383.669608 78.865142 
L 384.36273 110.821512 
L 384.59377 105.543702 
L 385.286892 65.382769 
L 385.748973 36.095254 
L 385.980014 35.632697 
L 386.673135 79.487431 
L 386.904176 81.429172 
L 387.135217 75.367678 
L 387.828338 40.732471 
L 388.059379 32.398125 
L 388.29042 33.108599 
L 388.752501 59.499309 
L 388.983541 73.352727 
L 389.214582 80.464125 
L 389.445623 76.27449 
L 389.907704 56.960237 
L 390.369785 41.351433 
L 390.600826 41.785704 
L 390.831866 50.7856 
L 391.524988 89.527249 
L 391.756029 90.304278 
L 392.21811 76.653853 
L 392.44915 67.42767 
L 392.680191 62.961832 
L 392.911232 62.657343 
L 393.142272 69.073242 
L 393.835394 103.528751 
L 394.066434 107.578621 
L 394.297475 106.089453 
L 395.221637 86.585519 
L 395.452678 91.239375 
L 396.37684 125.7448 
L 396.607881 125.952784 
L 397.532043 110.332333 
L 397.763084 112.089384 
L 397.994125 117.543564 
L 398.687246 140.341969 
L 398.918287 142.944269 
L 399.380368 137.76962 
L 399.611409 134.183971 
L 400.07349 131.079181 
L 400.30453 135.242195 
L 400.997652 153.564778 
L 401.228693 156.979048 
L 401.459733 157.915809 
L 401.921815 152.624689 
L 402.152855 149.64469 
L 402.383896 149.063998 
L 402.614936 151.095589 
L 403.539099 168.904035 
L 403.770139 170.61949 
L 404.00118 170.527977 
L 404.694302 164.223557 
L 404.925342 163.89411 
L 405.156383 164.191943 
L 406.080545 180.11522 
L 406.311586 181.281596 
L 406.542627 180.705896 
L 407.004708 177.095288 
L 407.466789 176.662681 
L 407.697829 178.579464 
L 408.390951 185.980377 
L 408.621992 188.083514 
L 408.853032 188.739081 
L 409.777195 184.148451 
L 410.008235 184.828976 
L 410.470317 189.574345 
L 410.932398 193.414567 
L 411.163438 193.138364 
L 411.394479 192.407923 
L 411.62552 191.153362 
L 412.087601 186.872214 
L 412.318641 187.461225 
L 412.780723 192.887119 
L 413.242804 196.401222 
L 413.473844 196.384583 
L 413.935926 192.431218 
L 414.166966 191.68913 
L 414.398007 191.387968 
L 415.55321 199.897022 
L 415.78425 199.92198 
L 416.246331 198.201534 
L 416.708413 196.178263 
L 417.632575 201.005162 
L 418.094656 201.970209 
L 418.325697 200.995179 
L 419.018819 199.968568 
L 419.249859 200.629126 
L 419.4809 201.867049 
L 419.71194 202.058394 
L 419.942981 202.554229 
L 420.174022 202.650733 
L 420.636103 202.149907 
L 420.867143 202.243084 
L 421.098184 201.555904 
L 421.329225 202.685675 
L 421.791306 203.674016 
L 422.022346 205.030074 
L 422.253387 205.181486 
L 422.484427 205.078326 
L 422.715468 205.154864 
L 422.946509 204.703954 
L 423.177549 204.725585 
L 423.40859 204.900292 
L 423.63963 205.334563 
L 424.794833 208.439352 
L 425.256915 208.362814 
L 425.487955 208.585773 
L 425.718996 208.248007 
L 425.950036 209.264634 
L 426.181077 209.399408 
L 426.412118 210.076604 
L 427.33628 211.361115 
L 427.567321 211.67226 
L 427.798361 211.530831 
L 428.029402 212.001707 
L 428.260442 212.124834 
L 428.722524 213.512505 
L 428.953564 213.494202 
L 429.184605 214.341114 
L 429.415645 214.61399 
L 429.646686 215.184698 
L 429.877726 215.237942 
L 430.108767 215.071555 
L 430.339808 215.735441 
L 430.570848 215.439271 
L 430.801889 216.131443 
L 431.495011 217.204642 
L 431.726051 217.791989 
L 431.957092 217.999974 
L 432.188132 217.908461 
L 432.419173 218.525758 
L 432.650214 218.527422 
L 432.881254 218.926752 
L 433.343335 219.236232 
L 433.574376 219.82358 
L 433.805417 219.813597 
L 434.267498 220.720408 
L 434.729579 221.056511 
L 434.96062 221.126394 
L 435.19166 221.507421 
L 435.422701 221.534043 
L 435.653741 221.871809 
L 435.884782 221.801926 
L 436.115823 222.267811 
L 437.964147 223.703735 
L 438.195188 224.123031 
L 438.426228 224.154645 
L 438.657269 224.522361 
L 439.350391 224.893405 
L 439.581431 225.109709 
L 439.812472 224.915035 
L 440.505594 225.525677 
L 440.967675 225.670434 
L 441.198716 226.113025 
L 441.660797 226.457447 
L 441.891837 226.412522 
L 442.816 226.740305 
L 443.04704 226.670423 
L 443.278081 227.227821 
L 443.509121 227.10303 
L 444.202243 227.487385 
L 444.433284 227.648781 
L 444.664324 227.435805 
L 445.126406 227.736966 
L 445.588487 227.602192 
L 445.819527 227.726983 
L 446.281609 228.350936 
L 446.512649 228.229473 
L 446.97473 228.400852 
L 447.667852 228.469071 
L 449.054096 228.908334 
L 449.516177 229.026469 
L 449.747218 228.919981 
L 449.978258 229.234453 
L 450.209299 229.219478 
L 450.440339 229.372554 
L 450.90242 229.284369 
L 452.288664 229.72696 
L 452.519705 229.643766 
L 452.981786 229.86007 
L 453.674908 230.03644 
L 453.905948 230.181197 
L 454.136989 230.094676 
L 455.292192 230.257736 
L 455.523232 230.234441 
L 455.754273 230.422459 
L 455.985314 230.246088 
L 456.216354 230.462392 
L 456.447395 230.425787 
L 456.678435 230.615469 
L 456.909476 230.502325 
L 457.140517 230.687015 
L 457.371557 230.528947 
L 457.602598 230.726948 
L 457.833638 230.670376 
L 458.295719 230.979857 
L 458.757801 230.888344 
L 459.450922 231.053068 
L 459.681963 231.20448 
L 459.913004 231.084681 
L 460.375085 231.102984 
L 460.606125 231.076362 
L 461.530288 231.465708 
L 462.22341 231.475692 
L 465.226937 231.86171 
L 465.457978 232.021442 
L 465.920059 231.923274 
L 466.38214 231.988165 
L 466.844221 232.07635 
L 467.537343 232.109628 
L 467.768384 232.335915 
L 467.999424 232.171191 
L 468.461506 232.434083 
L 468.923587 232.254385 
L 469.154627 232.399142 
L 469.616709 232.410789 
L 470.540871 232.547227 
L 470.771912 232.465697 
L 471.233993 232.642067 
L 471.465033 232.603798 
L 471.927115 232.701967 
L 472.620236 232.680337 
L 472.851277 232.800136 
L 473.082317 232.751883 
L 473.313358 232.84506 
L 474.00648 232.750219 
L 474.23752 232.766858 
L 474.699602 232.911615 
L 476.547926 233.021431 
L 477.010008 232.969851 
L 477.703129 233.131246 
L 478.165211 233.034742 
L 478.627292 233.217768 
L 478.858332 233.142894 
L 479.089373 233.197801 
L 479.551454 233.186154 
L 491.565565 233.527249 
L 492.258687 233.493971 
L 493.182849 233.577165 
L 493.41389 233.515601 
L 494.107011 233.598795 
L 494.800133 233.530576 
L 495.262214 233.607115 
L 495.724296 233.585484 
L 501.962392 233.672006 
L 502.193432 233.567182 
L 502.886554 233.680325 
L 505.19696 233.693636 
L 507.045285 233.71693 
L 507.738407 233.690308 
L 525.528532 233.888309 
L 525.990613 233.848376 
L 526.914776 233.888309 
L 528.301019 233.876662 
L 529.687263 233.894965 
L 606.161699 233.996461 
L 606.161699 233.996461 
" clip-path="url(#p7b0c72b259)" style="fill: none; stroke: #1f77b4; stroke-width: 1.5; stroke-linecap: square"/>
   </g>
   <g id="patch_8">
    <path d="M 364.054261 244.078125 
L 364.054261 22.318125 
" style="fill: none; stroke: #000000; stroke-width: 0.8; stroke-linejoin: miter; stroke-linecap: square"/>
   </g>
   <g id="patch_9">
    <path d="M 617.690625 244.078125 
L 617.690625 22.318125 
" style="fill: none; stroke: #000000; stroke-width: 0.8; stroke-linejoin: miter; stroke-linecap: square"/>
   </g>
   <g id="patch_10">
    <path d="M 364.054261 244.078125 
L 617.690625 244.078125 
" style="fill: none; stroke: #000000; stroke-width: 0.8; stroke-linejoin: miter; stroke-linecap: square"/>
   </g>
   <g id="patch_11">
    <path d="M 364.054261 22.318125 
L 617.690625 22.318125 
" style="fill: none; stroke: #000000; stroke-width: 0.8; stroke-linejoin: miter; stroke-linecap: square"/>
   </g>
   <g id="text_33">
    <text style="font-size: 12px; font-family: 'DejaVu Sans', 'Bitstream Vera Sans', 'Computer Modern Sans Serif', 'Lucida Grande', 'Verdana', 'Geneva', 'Lucid', 'Arial', 'Helvetica', 'Avant Garde', sans-serif; text-anchor: middle" x="490.872443" y="16.318125" transform="rotate(-0 490.872443 16.318125)">Sample2_test</text>
   </g>
  </g>
 </g>
 <defs>
  <clipPath id="pe5e8becaf9">
   <rect x="59.690625" y="22.318125" width="253.636364" height="221.76"/>
  </clipPath>
  <clipPath id="p7b0c72b259">
   <rect x="364.054261" y="22.318125" width="253.636364" height="221.76"/>
  </clipPath>
 </defs>
</svg>
