<?xml version="1.0" encoding="utf-8" standalone="no"?>
<!DOCTYPE svg PUBLIC "-//W3C//DTD SVG 1.1//EN"
  "http://www.w3.org/Graphics/SVG/1.1/DTD/svg11.dtd">
<svg xmlns:xlink="http://www.w3.org/1999/xlink" width="856.74625pt" height="568.592829pt" viewBox="0 0 856.74625 568.592829" xmlns="http://www.w3.org/2000/svg" version="1.1">
 <metadata>
  <rdf:RDF xmlns:dc="http://purl.org/dc/elements/1.1/" xmlns:cc="http://creativecommons.org/ns#" xmlns:rdf="http://www.w3.org/1999/02/22-rdf-syntax-ns#">
   <cc:Work>
    <dc:type rdf:resource="http://purl.org/dc/dcmitype/StillImage"/>
    <dc:date>2025-09-01T12:34:10.744311</dc:date>
    <dc:format>image/svg+xml</dc:format>
    <dc:creator>
     <cc:Agent>
      <dc:title>Matplotlib v3.10.5, https://matplotlib.org/</dc:title>
     </cc:Agent>
    </dc:creator>
   </cc:Work>
  </rdf:RDF>
 </metadata>
 <defs>
  <style type="text/css">*{stroke-linejoin: round; stroke-linecap: butt}</style>
 </defs>
 <g id="figure_1">
  <g id="patch_1">
   <path d="M 0 568.592829 
L 856.74625 568.592829 
L 856.74625 0 
L 0 0 
z
" style="fill: #ffffff"/>
  </g>
  <g id="axes_1">
   <g id="patch_2">
    <path d="M 43.78125 498.061089 
L 849.54625 498.061089 
L 849.54625 22.318125 
L 43.78125 22.318125 
z
" style="fill: #ffffff"/>
   </g>
   <g id="FillBetweenPolyCollection_1">
    <path d="M 205.583681 476.436409 
L 199.401395 476.436409 
L 199.422407 472.222851 
L 199.496601 468.009293 
L 199.61639 463.795735 
L 199.770371 459.582178 
L 199.943818 455.36862 
L 200.119322 451.155062 
L 200.277507 446.941504 
L 200.397757 442.727947 
L 200.458912 438.514389 
L 200.439926 434.300831 
L 200.320522 430.087273 
L 200.081881 425.873716 
L 199.707431 421.660158 
L 199.183748 417.4466 
L 198.501585 413.233042 
L 197.656956 409.019485 
L 196.652174 404.805927 
L 195.496676 400.592369 
L 194.207454 396.378811 
L 192.808904 392.165254 
L 191.331951 387.951696 
L 189.81238 383.738138 
L 188.288385 379.52458 
L 186.797502 375.311023 
L 185.373136 371.097465 
L 184.041046 366.883907 
L 182.816155 362.670349 
L 181.700073 358.456792 
L 180.679667 354.243234 
L 179.726899 350.029676 
L 178.800048 345.816118 
L 177.846233 341.602561 
L 176.805024 337.389003 
L 175.612793 333.175445 
L 174.207365 328.961887 
L 172.532498 324.748329 
L 170.541752 320.534772 
L 168.201442 316.321214 
L 165.49245 312.107656 
L 162.410926 307.894098 
L 158.967974 303.680541 
L 155.188636 299.466983 
L 151.110444 295.253425 
L 146.781855 291.039867 
L 142.260741 286.82631 
L 137.612944 282.612752 
L 132.910774 278.399194 
L 128.231166 274.185636 
L 123.653193 269.972079 
L 119.254691 265.758521 
L 115.107937 261.544963 
L 111.274585 257.331405 
L 107.800356 253.117848 
L 104.710231 248.90429 
L 102.005023 244.690732 
L 99.660194 240.477174 
L 97.627528 236.263617 
L 95.839955 232.050059 
L 94.219272 227.836501 
L 92.686062 223.622943 
L 91.170651 219.409386 
L 89.623688 215.195828 
L 88.024872 210.98227 
L 86.388548 206.768712 
L 84.765242 202.555155 
L 83.238784 198.341597 
L 81.919222 194.128039 
L 80.932331 189.914481 
L 80.406932 185.700924 
L 80.461552 181.487366 
L 81.191979 177.273808 
L 82.661145 173.06025 
L 84.89242 168.846692 
L 87.86697 164.633135 
L 91.525319 160.419577 
L 95.772731 156.206019 
L 100.487662 151.992461 
L 105.532177 147.778904 
L 110.763125 143.565346 
L 116.042863 139.351788 
L 121.248476 135.13823 
L 126.278724 130.924673 
L 131.05827 126.711115 
L 135.539124 122.497557 
L 139.699548 118.283999 
L 143.540916 114.070442 
L 147.083206 109.856884 
L 150.359796 105.643326 
L 153.412225 101.429768 
L 156.285404 97.216211 
L 159.023589 93.002653 
L 161.667276 88.789095 
L 164.250967 84.575537 
L 166.801731 80.36198 
L 169.338374 76.148422 
L 171.871117 71.934864 
L 174.40167 67.721306 
L 176.923684 63.507749 
L 179.42359 59.294191 
L 225.561486 59.294191 
L 225.561486 59.294191 
L 228.061392 63.507749 
L 230.583406 67.721306 
L 233.113958 71.934864 
L 235.646701 76.148422 
L 238.183345 80.36198 
L 240.734108 84.575537 
L 243.3178 88.789095 
L 245.961486 93.002653 
L 248.699672 97.216211 
L 251.572851 101.429768 
L 254.62528 105.643326 
L 257.90187 109.856884 
L 261.444159 114.070442 
L 265.285528 118.283999 
L 269.445951 122.497557 
L 273.926806 126.711115 
L 278.706352 130.924673 
L 283.736599 135.13823 
L 288.942213 139.351788 
L 294.221951 143.565346 
L 299.452899 147.778904 
L 304.497414 151.992461 
L 309.212345 156.206019 
L 313.459757 160.419577 
L 317.118106 164.633135 
L 320.092656 168.846692 
L 322.32393 173.06025 
L 323.793097 177.273808 
L 324.523524 181.487366 
L 324.578144 185.700924 
L 324.052745 189.914481 
L 323.065853 194.128039 
L 321.746292 198.341597 
L 320.219834 202.555155 
L 318.596528 206.768712 
L 316.960203 210.98227 
L 315.361388 215.195828 
L 313.814424 219.409386 
L 312.299014 223.622943 
L 310.765804 227.836501 
L 309.145121 232.050059 
L 307.357548 236.263617 
L 305.324882 240.477174 
L 302.980052 244.690732 
L 300.274845 248.90429 
L 297.184719 253.117848 
L 293.710491 257.331405 
L 289.877139 261.544963 
L 285.730385 265.758521 
L 281.331883 269.972079 
L 276.75391 274.185636 
L 272.074302 278.399194 
L 267.372132 282.612752 
L 262.724335 286.82631 
L 258.203221 291.039867 
L 253.874632 295.253425 
L 249.796439 299.466983 
L 246.017101 303.680541 
L 242.57415 307.894098 
L 239.492625 312.107656 
L 236.783634 316.321214 
L 234.443323 320.534772 
L 232.452578 324.748329 
L 230.77771 328.961887 
L 229.372283 333.175445 
L 228.180052 337.389003 
L 227.138842 341.602561 
L 226.185027 345.816118 
L 225.258177 350.029676 
L 224.305409 354.243234 
L 223.285002 358.456792 
L 222.168921 362.670349 
L 220.94403 366.883907 
L 219.61194 371.097465 
L 218.187574 375.311023 
L 216.69669 379.52458 
L 215.172696 383.738138 
L 213.653124 387.951696 
L 212.176172 392.165254 
L 210.777622 396.378811 
L 209.4884 400.592369 
L 208.332902 404.805927 
L 207.32812 409.019485 
L 206.483491 413.233042 
L 205.801327 417.4466 
L 205.277645 421.660158 
L 204.903195 425.873716 
L 204.664554 430.087273 
L 204.545149 434.300831 
L 204.526163 438.514389 
L 204.587318 442.727947 
L 204.707569 446.941504 
L 204.865754 451.155062 
L 205.041257 455.36862 
L 205.214705 459.582178 
L 205.368686 463.795735 
L 205.488475 468.009293 
L 205.562669 472.222851 
L 205.583681 476.436409 
z
" clip-path="url(#padbfe1f196)" style="fill: #1f77b4; fill-opacity: 0.3"/>
   </g>
   <g id="FillBetweenPolyCollection_2">
    <path d="M 693.710522 476.436409 
L 687.959402 476.436409 
L 687.641085 472.067786 
L 687.290211 467.699164 
L 686.896707 463.330542 
L 686.449522 458.96192 
L 685.937322 454.593297 
L 685.349142 450.224675 
L 684.674892 445.856053 
L 683.905677 441.487431 
L 683.033944 437.118808 
L 682.053537 432.750186 
L 680.959799 428.381564 
L 679.749874 424.012942 
L 678.423313 419.644319 
L 676.983055 415.275697 
L 675.436697 410.907075 
L 673.797886 406.538453 
L 672.08753 402.16983 
L 670.334476 397.801208 
L 668.57531 393.432586 
L 666.853014 389.063964 
L 665.214397 384.695341 
L 663.706371 380.326719 
L 662.371422 375.958097 
L 661.242736 371.589475 
L 660.33959 367.220852 
L 659.663602 362.85223 
L 659.196358 358.483608 
L 658.89876 354.114986 
L 658.712243 349.746363 
L 658.561761 345.377741 
L 658.360269 341.009119 
L 658.014261 336.640496 
L 657.42984 332.271874 
L 656.518783 327.903252 
L 655.204102 323.53463 
L 653.424687 319.166007 
L 651.138748 314.797385 
L 648.325915 310.428763 
L 644.988006 306.060141 
L 641.148566 301.691518 
L 636.851411 297.322896 
L 632.158383 292.954274 
L 627.146549 288.585652 
L 621.904977 284.217029 
L 616.531174 279.848407 
L 611.127193 275.479785 
L 605.79542 271.111163 
L 600.63412 266.74254 
L 595.7329 262.373918 
L 591.168434 258.005296 
L 587.000886 253.636674 
L 583.27152 249.268051 
L 580.001951 244.899429 
L 577.195277 240.530807 
L 574.839089 236.162185 
L 572.910012 231.793562 
L 571.379143 227.42494 
L 570.217591 223.056318 
L 569.401239 218.687696 
L 568.914034 214.319073 
L 568.749356 209.950451 
L 568.909375 205.581829 
L 569.402681 201.213206 
L 570.240741 196.844584 
L 571.43387 192.475962 
L 572.987453 188.10734 
L 574.898951 183.738717 
L 577.156078 179.370095 
L 579.736227 175.001473 
L 582.607056 170.632851 
L 585.727983 166.264228 
L 589.052299 161.895606 
L 592.529612 157.526984 
L 596.108406 153.158362 
L 599.738573 148.789739 
L 603.373806 144.421117 
L 606.973781 140.052495 
L 610.506011 135.683873 
L 613.947255 131.31525 
L 617.284322 126.946628 
L 620.514154 122.578006 
L 623.643109 118.209384 
L 626.685464 113.840761 
L 629.661271 109.472139 
L 632.593779 105.103517 
L 635.506715 100.734895 
L 638.421717 96.366272 
L 641.356164 91.99765 
L 644.321583 87.629028 
L 647.322706 83.260406 
L 650.357165 78.891783 
L 653.415728 74.523161 
L 656.482981 70.154539 
L 659.53831 65.785916 
L 662.557104 61.417294 
L 665.512088 57.048672 
L 668.374739 52.68005 
L 671.116733 48.311427 
L 673.711374 43.942805 
L 707.95855 43.942805 
L 707.95855 43.942805 
L 710.553191 48.311427 
L 713.295185 52.68005 
L 716.157836 57.048672 
L 719.11282 61.417294 
L 722.131614 65.785916 
L 725.186943 70.154539 
L 728.254196 74.523161 
L 731.31276 78.891783 
L 734.347218 83.260406 
L 737.348342 87.629028 
L 740.31376 91.99765 
L 743.248207 96.366272 
L 746.163209 100.734895 
L 749.076145 105.103517 
L 752.008653 109.472139 
L 754.98446 113.840761 
L 758.026815 118.209384 
L 761.15577 122.578006 
L 764.385602 126.946628 
L 767.722669 131.31525 
L 771.163913 135.683873 
L 774.696144 140.052495 
L 778.296119 144.421117 
L 781.931351 148.789739 
L 785.561518 153.158362 
L 789.140312 157.526984 
L 792.617625 161.895606 
L 795.941942 166.264228 
L 799.062868 170.632851 
L 801.933697 175.001473 
L 804.513846 179.370095 
L 806.770973 183.738717 
L 808.682472 188.10734 
L 810.236054 192.475962 
L 811.429183 196.844584 
L 812.267243 201.213206 
L 812.76055 205.581829 
L 812.920568 209.950451 
L 812.75589 214.319073 
L 812.268686 218.687696 
L 811.452333 223.056318 
L 810.290781 227.42494 
L 808.759913 231.793562 
L 806.830835 236.162185 
L 804.474648 240.530807 
L 801.667974 244.899429 
L 798.398404 249.268051 
L 794.669038 253.636674 
L 790.50149 258.005296 
L 785.937024 262.373918 
L 781.035804 266.74254 
L 775.874504 271.111163 
L 770.542732 275.479785 
L 765.13875 279.848407 
L 759.764947 284.217029 
L 754.523376 288.585652 
L 749.511541 292.954274 
L 744.818513 297.322896 
L 740.521358 301.691518 
L 736.681918 306.060141 
L 733.344009 310.428763 
L 730.531177 314.797385 
L 728.245237 319.166007 
L 726.465822 323.53463 
L 725.151141 327.903252 
L 724.240084 332.271874 
L 723.655663 336.640496 
L 723.309655 341.009119 
L 723.108164 345.377741 
L 722.957681 349.746363 
L 722.771164 354.114986 
L 722.473566 358.483608 
L 722.006322 362.85223 
L 721.330334 367.220852 
L 720.427188 371.589475 
L 719.298502 375.958097 
L 717.963553 380.326719 
L 716.455527 384.695341 
L 714.81691 389.063964 
L 713.094615 393.432586 
L 711.335448 397.801208 
L 709.582394 402.16983 
L 707.872038 406.538453 
L 706.233228 410.907075 
L 704.686869 415.275697 
L 703.246611 419.644319 
L 701.920051 424.012942 
L 700.710125 428.381564 
L 699.616388 432.750186 
L 698.63598 437.118808 
L 697.764247 441.487431 
L 696.995033 445.856053 
L 696.320782 450.224675 
L 695.732602 454.593297 
L 695.220402 458.96192 
L 694.773218 463.330542 
L 694.379714 467.699164 
L 694.028839 472.067786 
L 693.710522 476.436409 
z
" clip-path="url(#padbfe1f196)" style="fill: #1f77b4; fill-opacity: 0.3"/>
   </g>
   <g id="matplotlib.axis_1">
    <g id="xtick_1">
     <g id="line2d_1">
      <defs>
       <path id="m5af7f2db2c" d="M 0 0 
L 0 3.5 
" style="stroke: #000000; stroke-width: 0.8"/>
      </defs>
      <g>
       <use xlink:href="#m5af7f2db2c" x="202.492538" y="498.061089" style="stroke: #000000; stroke-width: 0.8"/>
      </g>
     </g>
     <g id="text_1">
      <text style="font-size: 10px; font-family: 'DejaVu Sans', 'Bitstream Vera Sans', 'Computer Modern Sans Serif', 'Lucida Grande', 'Verdana', 'Geneva', 'Lucid', 'Arial', 'Helvetica', 'Avant Garde', sans-serif" transform="translate(142.369778 545.672779) rotate(-30)">Sample1_test</text>
     </g>
    </g>
    <g id="xtick_2">
     <g id="line2d_2">
      <g>
       <use xlink:href="#m5af7f2db2c" x="690.834962" y="498.061089" style="stroke: #000000; stroke-width: 0.8"/>
      </g>
     </g>
     <g id="text_2">
      <text style="font-size: 10px; font-family: 'DejaVu Sans', 'Bitstream Vera Sans', 'Computer Modern Sans Serif', 'Lucida Grande', 'Verdana', 'Geneva', 'Lucid', 'Arial', 'Helvetica', 'Avant Garde', sans-serif" transform="translate(630.712202 545.672779) rotate(-30)">Sample2_test</text>
     </g>
    </g>
    <g id="text_3">
     <text style="font-size: 10px; font-family: 'DejaVu Sans', 'Bitstream Vera Sans', 'Computer Modern Sans Serif', 'Lucida Grande', 'Verdana', 'Geneva', 'Lucid', 'Arial', 'Helvetica', 'Avant Garde', sans-serif; text-anchor: middle" x="446.66375" y="559.313142" transform="rotate(-0 446.66375 559.313142)">Sample</text>
    </g>
   </g>
   <g id="matplotlib.axis_2">
    <g id="ytick_1">
     <g id="line2d_3">
      <defs>
       <path id="md8d663e288" d="M 0 0 
L -3.5 0 
" style="stroke: #000000; stroke-width: 0.8"/>
      </defs>
      <g>
       <use xlink:href="#md8d663e288" x="43.78125" y="431.323956" style="stroke: #000000; stroke-width: 0.8"/>
      </g>
     </g>
     <g id="text_4">
      <text style="font-size: 10px; font-family: 'DejaVu Sans', 'Bitstream Vera Sans', 'Computer Modern Sans Serif', 'Lucida Grande', 'Verdana', 'Geneva', 'Lucid', 'Arial', 'Helvetica', 'Avant Garde', sans-serif; text-anchor: end" x="36.78125" y="435.123175" transform="rotate(-0 36.78125 435.123175)">3.0</text>
     </g>
    </g>
    <g id="ytick_2">
     <g id="line2d_4">
      <g>
       <use xlink:href="#md8d663e288" x="43.78125" y="364.562821" style="stroke: #000000; stroke-width: 0.8"/>
      </g>
     </g>
     <g id="text_5">
      <text style="font-size: 10px; font-family: 'DejaVu Sans', 'Bitstream Vera Sans', 'Computer Modern Sans Serif', 'Lucida Grande', 'Verdana', 'Geneva', 'Lucid', 'Arial', 'Helvetica', 'Avant Garde', sans-serif; text-anchor: end" x="36.78125" y="368.36204" transform="rotate(-0 36.78125 368.36204)">3.5</text>
     </g>
    </g>
    <g id="ytick_3">
     <g id="line2d_5">
      <g>
       <use xlink:href="#md8d663e288" x="43.78125" y="297.801686" style="stroke: #000000; stroke-width: 0.8"/>
      </g>
     </g>
     <g id="text_6">
      <text style="font-size: 10px; font-family: 'DejaVu Sans', 'Bitstream Vera Sans', 'Computer Modern Sans Serif', 'Lucida Grande', 'Verdana', 'Geneva', 'Lucid', 'Arial', 'Helvetica', 'Avant Garde', sans-serif; text-anchor: end" x="36.78125" y="301.600905" transform="rotate(-0 36.78125 301.600905)">4.0</text>
     </g>
    </g>
    <g id="ytick_4">
     <g id="line2d_6">
      <g>
       <use xlink:href="#md8d663e288" x="43.78125" y="231.04055" style="stroke: #000000; stroke-width: 0.8"/>
      </g>
     </g>
     <g id="text_7">
      <text style="font-size: 10px; font-family: 'DejaVu Sans', 'Bitstream Vera Sans', 'Computer Modern Sans Serif', 'Lucida Grande', 'Verdana', 'Geneva', 'Lucid', 'Arial', 'Helvetica', 'Avant Garde', sans-serif; text-anchor: end" x="36.78125" y="234.839769" transform="rotate(-0 36.78125 234.839769)">4.5</text>
     </g>
    </g>
    <g id="ytick_5">
     <g id="line2d_7">
      <g>
       <use xlink:href="#md8d663e288" x="43.78125" y="164.279415" style="stroke: #000000; stroke-width: 0.8"/>
      </g>
     </g>
     <g id="text_8">
      <text style="font-size: 10px; font-family: 'DejaVu Sans', 'Bitstream Vera Sans', 'Computer Modern Sans Serif', 'Lucida Grande', 'Verdana', 'Geneva', 'Lucid', 'Arial', 'Helvetica', 'Avant Garde', sans-serif; text-anchor: end" x="36.78125" y="168.078634" transform="rotate(-0 36.78125 168.078634)">5.0</text>
     </g>
    </g>
    <g id="ytick_6">
     <g id="line2d_8">
      <g>
       <use xlink:href="#md8d663e288" x="43.78125" y="97.51828" style="stroke: #000000; stroke-width: 0.8"/>
      </g>
     </g>
     <g id="text_9">
      <text style="font-size: 10px; font-family: 'DejaVu Sans', 'Bitstream Vera Sans', 'Computer Modern Sans Serif', 'Lucida Grande', 'Verdana', 'Geneva', 'Lucid', 'Arial', 'Helvetica', 'Avant Garde', sans-serif; text-anchor: end" x="36.78125" y="101.317498" transform="rotate(-0 36.78125 101.317498)">5.5</text>
     </g>
    </g>
    <g id="ytick_7">
     <g id="line2d_9">
      <g>
       <use xlink:href="#md8d663e288" x="43.78125" y="30.757144" style="stroke: #000000; stroke-width: 0.8"/>
      </g>
     </g>
     <g id="text_10">
      <text style="font-size: 10px; font-family: 'DejaVu Sans', 'Bitstream Vera Sans', 'Computer Modern Sans Serif', 'Lucida Grande', 'Verdana', 'Geneva', 'Lucid', 'Arial', 'Helvetica', 'Avant Garde', sans-serif; text-anchor: end" x="36.78125" y="34.556363" transform="rotate(-0 36.78125 34.556363)">6.0</text>
     </g>
    </g>
    <g id="text_11">
     <text style="font-size: 10px; font-family: 'DejaVu Sans', 'Bitstream Vera Sans', 'Computer Modern Sans Serif', 'Lucida Grande', 'Verdana', 'Geneva', 'Lucid', 'Arial', 'Helvetica', 'Avant Garde', sans-serif; text-anchor: middle" x="14.798438" y="260.189607" transform="rotate(-90 14.798438 260.189607)">TSS Enrichment Score</text>
    </g>
   </g>
   <g id="LineCollection_1">
    <path d="M 141.449735 59.294191 
L 263.535341 59.294191 
" clip-path="url(#padbfe1f196)" style="fill: none; stroke: #1f77b4; stroke-width: 1.5"/>
    <path d="M 629.792159 43.942805 
L 751.877765 43.942805 
" clip-path="url(#padbfe1f196)" style="fill: none; stroke: #1f77b4; stroke-width: 1.5"/>
   </g>
   <g id="LineCollection_2">
    <path d="M 141.449735 476.436409 
L 263.535341 476.436409 
" clip-path="url(#padbfe1f196)" style="fill: none; stroke: #1f77b4; stroke-width: 1.5"/>
    <path d="M 629.792159 476.436409 
L 751.877765 476.436409 
" clip-path="url(#padbfe1f196)" style="fill: none; stroke: #1f77b4; stroke-width: 1.5"/>
   </g>
   <g id="LineCollection_3">
    <path d="M 202.492538 476.436409 
L 202.492538 59.294191 
" clip-path="url(#padbfe1f196)" style="fill: none; stroke: #1f77b4; stroke-width: 1.5"/>
    <path d="M 690.834962 476.436409 
L 690.834962 43.942805 
" clip-path="url(#padbfe1f196)" style="fill: none; stroke: #1f77b4; stroke-width: 1.5"/>
   </g>
   <g id="LineCollection_4">
    <path d="M 141.449735 194.723581 
L 263.535341 194.723581 
" clip-path="url(#padbfe1f196)" style="fill: none; stroke: #1f77b4; stroke-width: 1.5"/>
    <path d="M 629.792159 205.920141 
L 751.877765 205.920141 
" clip-path="url(#padbfe1f196)" style="fill: none; stroke: #1f77b4; stroke-width: 1.5"/>
   </g>
   <g id="line2d_10">
    <path d="M 43.78125 205.031499 
L 849.54625 205.031499 
" clip-path="url(#padbfe1f196)" style="fill: none; stroke-dasharray: 5.55,2.4; stroke-dashoffset: 0; stroke: #ff0000; stroke-width: 1.5"/>
   </g>
   <g id="patch_3">
    <path d="M 43.78125 498.061089 
L 43.78125 22.318125 
" style="fill: none; stroke: #000000; stroke-width: 0.8; stroke-linejoin: miter; stroke-linecap: square"/>
   </g>
   <g id="patch_4">
    <path d="M 849.54625 498.061089 
L 849.54625 22.318125 
" style="fill: none; stroke: #000000; stroke-width: 0.8; stroke-linejoin: miter; stroke-linecap: square"/>
   </g>
   <g id="patch_5">
    <path d="M 43.78125 498.061089 
L 849.54625 498.061089 
" style="fill: none; stroke: #000000; stroke-width: 0.8; stroke-linejoin: miter; stroke-linecap: square"/>
   </g>
   <g id="patch_6">
    <path d="M 43.78125 22.318125 
L 849.54625 22.318125 
" style="fill: none; stroke: #000000; stroke-width: 0.8; stroke-linejoin: miter; stroke-linecap: square"/>
   </g>
   <g id="text_12">
    <text style="font-size: 12px; font-family: 'DejaVu Sans', 'Bitstream Vera Sans', 'Computer Modern Sans Serif', 'Lucida Grande', 'Verdana', 'Geneva', 'Lucid', 'Arial', 'Helvetica', 'Avant Garde', sans-serif; text-anchor: middle" x="446.66375" y="16.318125" transform="rotate(-0 446.66375 16.318125)">Violin Plot of TSSE Across Samples</text>
   </g>
   <g id="legend_1">
    <g id="patch_7">
     <path d="M 50.78125 44.99625 
L 220.648438 44.99625 
Q 222.648438 44.99625 222.648438 42.99625 
L 222.648438 29.318125 
Q 222.648438 27.318125 220.648438 27.318125 
L 50.78125 27.318125 
Q 48.78125 27.318125 48.78125 29.318125 
L 48.78125 42.99625 
Q 48.78125 44.99625 50.78125 44.99625 
z
" style="fill: #ffffff; opacity: 0.8; stroke: #cccccc; stroke-linejoin: miter"/>
    </g>
    <g id="line2d_11">
     <path d="M 52.78125 35.416562 
L 62.78125 35.416562 
L 72.78125 35.416562 
" style="fill: none; stroke-dasharray: 5.55,2.4; stroke-dashoffset: 0; stroke: #ff0000; stroke-width: 1.5"/>
    </g>
    <g id="text_13">
     <text style="font-size: 10px; font-family: 'DejaVu Sans', 'Bitstream Vera Sans', 'Computer Modern Sans Serif', 'Lucida Grande', 'Verdana', 'Geneva', 'Lucid', 'Arial', 'Helvetica', 'Avant Garde', sans-serif; text-anchor: start" x="80.78125" y="38.916562" transform="rotate(-0 80.78125 38.916562)">Global median TSSE = 4.69</text>
    </g>
   </g>
  </g>
 </g>
 <defs>
  <clipPath id="padbfe1f196">
   <rect x="43.78125" y="22.318125" width="805.765" height="475.742964"/>
  </clipPath>
 </defs>
</svg>
