<?xml version="1.0" encoding="utf-8" standalone="no"?>
<!DOCTYPE svg PUBLIC "-//W3C//DTD SVG 1.1//EN"
  "http://www.w3.org/Graphics/SVG/1.1/DTD/svg11.dtd">
<svg xmlns:xlink="http://www.w3.org/1999/xlink" width="856.883125pt" height="568.973175pt" viewBox="0 0 856.883125 568.973175" xmlns="http://www.w3.org/2000/svg" version="1.1">
 <metadata>
  <rdf:RDF xmlns:dc="http://purl.org/dc/elements/1.1/" xmlns:cc="http://creativecommons.org/ns#" xmlns:rdf="http://www.w3.org/1999/02/22-rdf-syntax-ns#">
   <cc:Work>
    <dc:type rdf:resource="http://purl.org/dc/dcmitype/StillImage"/>
    <dc:date>2025-09-15T15:32:31.676193</dc:date>
    <dc:format>image/svg+xml</dc:format>
    <dc:creator>
     <cc:Agent>
      <dc:title>Matplotlib v3.10.6, https://matplotlib.org/</dc:title>
     </cc:Agent>
    </dc:creator>
   </cc:Work>
  </rdf:RDF>
 </metadata>
 <defs>
  <style type="text/css">*{stroke-linejoin: round; stroke-linecap: butt}</style>
 </defs>
 <g id="figure_1">
  <g id="patch_1">
   <path d="M 0 568.973175 
L 856.883125 568.973175 
L 856.883125 0 
L 0 0 
z
" style="fill: #ffffff"/>
  </g>
  <g id="axes_1">
   <g id="patch_2">
    <path d="M 40.603125 498.441435 
L 849.683125 498.441435 
L 849.683125 22.318125 
L 40.603125 22.318125 
z
" style="fill: #ffffff"/>
   </g>
   <g id="FillBetweenPolyCollection_1">
    <path d="M 209.550635 476.501675 
L 190.3841 476.501675 
L 183.037026 472.132568 
L 175.107536 467.763462 
L 168.749253 463.394355 
L 165.097316 459.025248 
L 163.338606 454.656141 
L 161.464316 450.287034 
L 157.963513 445.917927 
L 152.712557 441.54882 
L 146.442097 437.179713 
L 139.798287 432.810606 
L 132.992489 428.4415 
L 125.9878 424.072393 
L 118.837399 419.703286 
L 111.963716 415.334179 
L 106.070511 410.965072 
L 101.548816 406.595965 
L 97.933569 402.226858 
L 94.236404 397.857751 
L 90.036071 393.488644 
L 85.914873 389.119538 
L 82.563604 384.750431 
L 80.006838 380.381324 
L 78.128346 376.012217 
L 77.379489 371.64311 
L 78.24744 367.274003 
L 80.279888 362.904896 
L 82.429526 358.535789 
L 84.439735 354.166682 
L 87.274027 349.797576 
L 91.889363 345.428469 
L 98.031291 341.059362 
L 104.652169 336.690255 
L 111.132891 332.321148 
L 117.622088 327.952041 
L 124.47523 323.582934 
L 131.763346 319.213827 
L 139.221436 314.844721 
L 146.451643 310.475614 
L 153.148065 306.106507 
L 159.198866 301.7374 
L 164.60482 297.368293 
L 169.306092 292.999186 
L 173.227078 288.630079 
L 176.542299 284.260972 
L 179.559975 279.891865 
L 182.266997 275.522759 
L 184.462125 271.153652 
L 186.337934 266.784545 
L 188.408915 262.415438 
L 190.859856 258.046331 
L 193.301318 253.677224 
L 195.17945 249.308117 
L 196.283632 244.93901 
L 196.845387 240.569903 
L 197.242457 236.200797 
L 197.677405 231.83169 
L 198.120219 227.462583 
L 198.484683 223.093476 
L 198.780315 218.724369 
L 199.072847 214.355262 
L 199.361558 209.986155 
L 199.575831 205.617048 
L 199.676817 201.247942 
L 199.687632 196.878835 
L 199.65188 192.509728 
L 199.627847 188.140621 
L 199.670856 183.771514 
L 199.774005 179.402407 
L 199.876313 175.0333 
L 199.936779 170.664193 
L 199.960067 166.295086 
L 199.966131 161.92598 
L 199.967219 157.556873 
L 199.967351 153.187766 
L 199.967327 148.818659 
L 199.967038 144.449552 
L 199.965438 140.080445 
L 199.959373 135.711338 
L 199.943904 131.342231 
L 199.918603 126.973124 
L 199.895601 122.604018 
L 199.892577 118.234911 
L 199.912174 113.865804 
L 199.938524 109.496697 
L 199.956694 105.12759 
L 199.96457 100.758483 
L 199.966848 96.389376 
L 199.967299 92.020269 
L 199.967361 87.651162 
L 199.967367 83.282056 
L 199.967366 78.912949 
L 199.967351 74.543842 
L 199.967214 70.174735 
L 199.966342 65.805628 
L 199.962519 61.436521 
L 199.951142 57.067414 
L 199.928916 52.698307 
L 199.902839 48.329201 
L 199.890686 43.960094 
L 200.044049 43.960094 
L 200.044049 43.960094 
L 200.031895 48.329201 
L 200.005819 52.698307 
L 199.983593 57.067414 
L 199.972216 61.436521 
L 199.968393 65.805628 
L 199.967521 70.174735 
L 199.967384 74.543842 
L 199.967369 78.912949 
L 199.967368 83.282056 
L 199.967374 87.651162 
L 199.967436 92.020269 
L 199.967886 96.389376 
L 199.970164 100.758483 
L 199.978041 105.12759 
L 199.996211 109.496697 
L 200.022561 113.865804 
L 200.042158 118.234911 
L 200.039133 122.604018 
L 200.016132 126.973124 
L 199.990831 131.342231 
L 199.975362 135.711338 
L 199.969296 140.080445 
L 199.967697 144.449552 
L 199.967408 148.818659 
L 199.967383 153.187766 
L 199.967516 157.556873 
L 199.968603 161.92598 
L 199.974668 166.295086 
L 199.997956 170.664193 
L 200.058421 175.0333 
L 200.16073 179.402407 
L 200.263879 183.771514 
L 200.306888 188.140621 
L 200.282854 192.509728 
L 200.247103 196.878835 
L 200.257917 201.247942 
L 200.358904 205.617048 
L 200.573177 209.986155 
L 200.861888 214.355262 
L 201.15442 218.724369 
L 201.450052 223.093476 
L 201.814516 227.462583 
L 202.257329 231.83169 
L 202.692278 236.200797 
L 203.089348 240.569903 
L 203.651102 244.93901 
L 204.755285 249.308117 
L 206.633417 253.677224 
L 209.074878 258.046331 
L 211.52582 262.415438 
L 213.596801 266.784545 
L 215.47261 271.153652 
L 217.667738 275.522759 
L 220.37476 279.891865 
L 223.392435 284.260972 
L 226.707657 288.630079 
L 230.628643 292.999186 
L 235.329914 297.368293 
L 240.735869 301.7374 
L 246.78667 306.106507 
L 253.483091 310.475614 
L 260.713299 314.844721 
L 268.171388 319.213827 
L 275.459505 323.582934 
L 282.312646 327.952041 
L 288.801843 332.321148 
L 295.282566 336.690255 
L 301.903444 341.059362 
L 308.045372 345.428469 
L 312.660708 349.797576 
L 315.495 354.166682 
L 317.505208 358.535789 
L 319.654847 362.904896 
L 321.687295 367.274003 
L 322.555246 371.64311 
L 321.806389 376.012217 
L 319.927897 380.381324 
L 317.371131 384.750431 
L 314.019862 389.119538 
L 309.898664 393.488644 
L 305.698331 397.857751 
L 302.001166 402.226858 
L 298.385919 406.595965 
L 293.864224 410.965072 
L 287.971018 415.334179 
L 281.097336 419.703286 
L 273.946935 424.072393 
L 266.942246 428.4415 
L 260.136447 432.810606 
L 253.492638 437.179713 
L 247.222178 441.54882 
L 241.971221 445.917927 
L 238.470418 450.287034 
L 236.596129 454.656141 
L 234.837419 459.025248 
L 231.185482 463.394355 
L 224.827199 467.763462 
L 216.897708 472.132568 
L 209.550635 476.501675 
z
" clip-path="url(#p0fc8e3a661)" style="fill: #1f77b4; fill-opacity: 0.3"/>
   </g>
   <g id="FillBetweenPolyCollection_2">
    <path d="M 697.971848 476.799466 
L 682.665917 476.799466 
L 670.046302 473.620521 
L 646.459338 470.441576 
L 613.526206 467.262631 
L 582.104551 464.083686 
L 567.731004 460.904741 
L 577.917689 457.725796 
L 604.482247 454.546851 
L 630.526413 451.367905 
L 643.80425 448.18896 
L 642.648475 445.010015 
L 632.655079 441.83107 
L 621.193586 438.652125 
L 614.084006 435.47318 
L 614.135121 432.294235 
L 620.682817 429.11529 
L 630.372289 425.936344 
L 639.225061 422.757399 
L 644.742596 419.578454 
L 646.614762 416.399509 
L 646.023241 413.220564 
L 644.584739 410.041619 
L 643.643483 406.862674 
L 643.942702 403.683729 
L 645.548576 400.504783 
L 648.011899 397.325838 
L 650.691593 394.146893 
L 653.04247 390.967948 
L 654.76473 387.789003 
L 655.854789 384.610058 
L 656.553923 381.431113 
L 657.145781 378.252168 
L 657.741414 375.073222 
L 658.308608 371.894277 
L 658.883529 368.715332 
L 659.633681 365.536387 
L 660.703335 362.357442 
L 662.078095 359.178497 
L 663.613441 355.999552 
L 665.159183 352.820607 
L 666.654114 349.641661 
L 668.110539 346.462716 
L 669.517942 343.283771 
L 670.80296 340.104826 
L 671.907913 336.925881 
L 672.872885 333.746936 
L 673.814283 330.567991 
L 674.845667 327.389046 
L 676.00964 324.2101 
L 677.250152 321.031155 
L 678.47559 317.85221 
L 679.647512 314.673265 
L 680.750158 311.49432 
L 681.722618 308.315375 
L 682.516909 305.13643 
L 683.186968 301.957485 
L 683.848919 298.778539 
L 684.572778 295.599594 
L 685.341123 292.420649 
L 686.088807 289.241704 
L 686.762766 286.062759 
L 687.346551 282.883814 
L 687.83647 279.704869 
L 688.222076 276.525924 
L 688.508582 273.346978 
L 688.736747 270.168033 
L 688.95576 266.989088 
L 689.177673 263.810143 
L 689.371857 260.631198 
L 689.507092 257.452253 
L 689.588499 254.273308 
L 689.649406 251.094363 
L 689.716009 247.915417 
L 689.789224 244.736472 
L 689.860655 241.557527 
L 689.932427 238.378582 
L 690.010482 235.199637 
L 690.088211 232.020692 
L 690.150592 228.841747 
L 690.191691 225.662802 
L 690.218934 222.483856 
L 690.240965 219.304911 
L 690.258409 216.125966 
L 690.267747 212.947021 
L 690.268528 209.768076 
L 690.263928 206.589131 
L 690.257737 203.410186 
L 690.253877 200.231241 
L 690.2564 197.052295 
L 690.266181 193.87335 
L 690.279316 190.694405 
L 690.291462 187.51546 
L 690.301376 184.336515 
L 690.309133 181.15757 
L 690.31419 177.978625 
L 690.315988 174.79968 
L 690.314511 171.620734 
L 690.310404 168.441789 
L 690.305719 165.262844 
L 690.30361 162.083899 
L 690.334155 162.083899 
L 690.334155 162.083899 
L 690.332046 165.262844 
L 690.327362 168.441789 
L 690.323254 171.620734 
L 690.321777 174.79968 
L 690.323576 177.978625 
L 690.328632 181.15757 
L 690.336389 184.336515 
L 690.346303 187.51546 
L 690.358449 190.694405 
L 690.371584 193.87335 
L 690.381365 197.052295 
L 690.383888 200.231241 
L 690.380029 203.410186 
L 690.373837 206.589131 
L 690.369237 209.768076 
L 690.370018 212.947021 
L 690.379356 216.125966 
L 690.3968 219.304911 
L 690.418831 222.483856 
L 690.446074 225.662802 
L 690.487173 228.841747 
L 690.549554 232.020692 
L 690.627283 235.199637 
L 690.705338 238.378582 
L 690.77711 241.557527 
L 690.848541 244.736472 
L 690.921756 247.915417 
L 690.988359 251.094363 
L 691.049266 254.273308 
L 691.130673 257.452253 
L 691.265908 260.631198 
L 691.460092 263.810143 
L 691.682005 266.989088 
L 691.901018 270.168033 
L 692.129183 273.346978 
L 692.41569 276.525924 
L 692.801296 279.704869 
L 693.291215 282.883814 
L 693.874999 286.062759 
L 694.548958 289.241704 
L 695.296642 292.420649 
L 696.064987 295.599594 
L 696.788846 298.778539 
L 697.450797 301.957485 
L 698.120856 305.13643 
L 698.915148 308.315375 
L 699.887607 311.49432 
L 700.990254 314.673265 
L 702.162176 317.85221 
L 703.387613 321.031155 
L 704.628125 324.2101 
L 705.792098 327.389046 
L 706.823482 330.567991 
L 707.76488 333.746936 
L 708.729852 336.925881 
L 709.834806 340.104826 
L 711.119824 343.283771 
L 712.527226 346.462716 
L 713.983651 349.641661 
L 715.478583 352.820607 
L 717.024324 355.999552 
L 718.55967 359.178497 
L 719.93443 362.357442 
L 721.004084 365.536387 
L 721.754236 368.715332 
L 722.329157 371.894277 
L 722.896351 375.073222 
L 723.491984 378.252168 
L 724.083843 381.431113 
L 724.782976 384.610058 
L 725.873035 387.789003 
L 727.595295 390.967948 
L 729.946172 394.146893 
L 732.625866 397.325838 
L 735.089189 400.504783 
L 736.695063 403.683729 
L 736.994282 406.862674 
L 736.053027 410.041619 
L 734.614525 413.220564 
L 734.023003 416.399509 
L 735.89517 419.578454 
L 741.412705 422.757399 
L 750.265476 425.936344 
L 759.954948 429.11529 
L 766.502644 432.294235 
L 766.55376 435.47318 
L 759.444179 438.652125 
L 747.982687 441.83107 
L 737.98929 445.010015 
L 736.833516 448.18896 
L 750.111352 451.367905 
L 776.155518 454.546851 
L 802.720076 457.725796 
L 812.906761 460.904741 
L 798.533214 464.083686 
L 767.111559 467.262631 
L 734.178427 470.441576 
L 710.591463 473.620521 
L 697.971848 476.799466 
z
" clip-path="url(#p0fc8e3a661)" style="fill: #1f77b4; fill-opacity: 0.3"/>
   </g>
   <g id="matplotlib.axis_1">
    <g id="xtick_1">
     <g id="line2d_1">
      <defs>
       <path id="mc7f853f999" d="M 0 0 
L 0 3.5 
" style="stroke: #000000; stroke-width: 0.8"/>
      </defs>
      <g>
       <use xlink:href="#mc7f853f999" x="199.967367" y="498.441435" style="stroke: #000000; stroke-width: 0.8"/>
      </g>
     </g>
     <g id="text_1">
      <text style="font-size: 10px; font-family: 'DejaVu Sans', 'Bitstream Vera Sans', 'Computer Modern Sans Serif', 'Lucida Grande', 'Verdana', 'Geneva', 'Lucid', 'Arial', 'Helvetica', 'Avant Garde', sans-serif" transform="translate(139.844607 546.053125) rotate(-30)">Sample1_test</text>
     </g>
    </g>
    <g id="xtick_2">
     <g id="line2d_2">
      <g>
       <use xlink:href="#mc7f853f999" x="690.318883" y="498.441435" style="stroke: #000000; stroke-width: 0.8"/>
      </g>
     </g>
     <g id="text_2">
      <text style="font-size: 10px; font-family: 'DejaVu Sans', 'Bitstream Vera Sans', 'Computer Modern Sans Serif', 'Lucida Grande', 'Verdana', 'Geneva', 'Lucid', 'Arial', 'Helvetica', 'Avant Garde', sans-serif" transform="translate(630.196122 546.053125) rotate(-30)">Sample2_test</text>
     </g>
    </g>
    <g id="text_3">
     <text style="font-size: 10px; font-family: 'DejaVu Sans', 'Bitstream Vera Sans', 'Computer Modern Sans Serif', 'Lucida Grande', 'Verdana', 'Geneva', 'Lucid', 'Arial', 'Helvetica', 'Avant Garde', sans-serif; text-anchor: middle" x="445.143125" y="559.693488" transform="rotate(-0 445.143125 559.693488)">Sample</text>
    </g>
   </g>
   <g id="matplotlib.axis_2">
    <g id="ytick_1">
     <g id="line2d_3">
      <defs>
       <path id="m99cc208257" d="M 0 0 
L -3.5 0 
" style="stroke: #000000; stroke-width: 0.8"/>
      </defs>
      <g>
       <use xlink:href="#m99cc208257" x="40.603125" y="486.924364" style="stroke: #000000; stroke-width: 0.8"/>
      </g>
     </g>
     <g id="text_4">
      <text style="font-size: 10px; font-family: 'DejaVu Sans', 'Bitstream Vera Sans', 'Computer Modern Sans Serif', 'Lucida Grande', 'Verdana', 'Geneva', 'Lucid', 'Arial', 'Helvetica', 'Avant Garde', sans-serif; text-anchor: end" x="33.603125" y="490.723583" transform="rotate(-0 33.603125 490.723583)">0</text>
     </g>
    </g>
    <g id="ytick_2">
     <g id="line2d_4">
      <g>
       <use xlink:href="#m99cc208257" x="40.603125" y="408.962652" style="stroke: #000000; stroke-width: 0.8"/>
      </g>
     </g>
     <g id="text_5">
      <text style="font-size: 10px; font-family: 'DejaVu Sans', 'Bitstream Vera Sans', 'Computer Modern Sans Serif', 'Lucida Grande', 'Verdana', 'Geneva', 'Lucid', 'Arial', 'Helvetica', 'Avant Garde', sans-serif; text-anchor: end" x="33.603125" y="412.761871" transform="rotate(-0 33.603125 412.761871)">2</text>
     </g>
    </g>
    <g id="ytick_3">
     <g id="line2d_5">
      <g>
       <use xlink:href="#m99cc208257" x="40.603125" y="331.000941" style="stroke: #000000; stroke-width: 0.8"/>
      </g>
     </g>
     <g id="text_6">
      <text style="font-size: 10px; font-family: 'DejaVu Sans', 'Bitstream Vera Sans', 'Computer Modern Sans Serif', 'Lucida Grande', 'Verdana', 'Geneva', 'Lucid', 'Arial', 'Helvetica', 'Avant Garde', sans-serif; text-anchor: end" x="33.603125" y="334.80016" transform="rotate(-0 33.603125 334.80016)">4</text>
     </g>
    </g>
    <g id="ytick_4">
     <g id="line2d_6">
      <g>
       <use xlink:href="#m99cc208257" x="40.603125" y="253.039229" style="stroke: #000000; stroke-width: 0.8"/>
      </g>
     </g>
     <g id="text_7">
      <text style="font-size: 10px; font-family: 'DejaVu Sans', 'Bitstream Vera Sans', 'Computer Modern Sans Serif', 'Lucida Grande', 'Verdana', 'Geneva', 'Lucid', 'Arial', 'Helvetica', 'Avant Garde', sans-serif; text-anchor: end" x="33.603125" y="256.838448" transform="rotate(-0 33.603125 256.838448)">6</text>
     </g>
    </g>
    <g id="ytick_5">
     <g id="line2d_7">
      <g>
       <use xlink:href="#m99cc208257" x="40.603125" y="175.077518" style="stroke: #000000; stroke-width: 0.8"/>
      </g>
     </g>
     <g id="text_8">
      <text style="font-size: 10px; font-family: 'DejaVu Sans', 'Bitstream Vera Sans', 'Computer Modern Sans Serif', 'Lucida Grande', 'Verdana', 'Geneva', 'Lucid', 'Arial', 'Helvetica', 'Avant Garde', sans-serif; text-anchor: end" x="33.603125" y="178.876736" transform="rotate(-0 33.603125 178.876736)">8</text>
     </g>
    </g>
    <g id="ytick_6">
     <g id="line2d_8">
      <g>
       <use xlink:href="#m99cc208257" x="40.603125" y="97.115806" style="stroke: #000000; stroke-width: 0.8"/>
      </g>
     </g>
     <g id="text_9">
      <text style="font-size: 10px; font-family: 'DejaVu Sans', 'Bitstream Vera Sans', 'Computer Modern Sans Serif', 'Lucida Grande', 'Verdana', 'Geneva', 'Lucid', 'Arial', 'Helvetica', 'Avant Garde', sans-serif; text-anchor: end" x="33.603125" y="100.915025" transform="rotate(-0 33.603125 100.915025)">10</text>
     </g>
    </g>
    <g id="text_10">
     <text style="font-size: 10px; font-family: 'DejaVu Sans', 'Bitstream Vera Sans', 'Computer Modern Sans Serif', 'Lucida Grande', 'Verdana', 'Geneva', 'Lucid', 'Arial', 'Helvetica', 'Avant Garde', sans-serif; text-anchor: middle" x="14.798438" y="260.37978" transform="rotate(-90 14.798438 260.37978)">TSS Enrichment Score</text>
    </g>
   </g>
   <g id="LineCollection_1">
    <path d="M 138.673428 43.960094 
L 261.261307 43.960094 
" clip-path="url(#p0fc8e3a661)" style="fill: none; stroke: #1f77b4; stroke-width: 1.5"/>
    <path d="M 629.024943 162.083899 
L 751.612822 162.083899 
" clip-path="url(#p0fc8e3a661)" style="fill: none; stroke: #1f77b4; stroke-width: 1.5"/>
   </g>
   <g id="LineCollection_2">
    <path d="M 138.673428 476.501675 
L 261.261307 476.501675 
" clip-path="url(#p0fc8e3a661)" style="fill: none; stroke: #1f77b4; stroke-width: 1.5"/>
    <path d="M 629.024943 476.799466 
L 751.612822 476.799466 
" clip-path="url(#p0fc8e3a661)" style="fill: none; stroke: #1f77b4; stroke-width: 1.5"/>
   </g>
   <g id="LineCollection_3">
    <path d="M 199.967367 476.501675 
L 199.967367 43.960094 
" clip-path="url(#p0fc8e3a661)" style="fill: none; stroke: #1f77b4; stroke-width: 1.5"/>
    <path d="M 690.318883 476.799466 
L 690.318883 162.083899 
" clip-path="url(#p0fc8e3a661)" style="fill: none; stroke: #1f77b4; stroke-width: 1.5"/>
   </g>
   <g id="LineCollection_4">
    <path d="M 138.673428 372.611004 
L 261.261307 372.611004 
" clip-path="url(#p0fc8e3a661)" style="fill: none; stroke: #1f77b4; stroke-width: 1.5"/>
    <path d="M 629.024943 425.294552 
L 751.612822 425.294552 
" clip-path="url(#p0fc8e3a661)" style="fill: none; stroke: #1f77b4; stroke-width: 1.5"/>
   </g>
   <g id="line2d_9">
    <path d="M 40.603125 410.303517 
L 849.683125 410.303517 
" clip-path="url(#p0fc8e3a661)" style="fill: none; stroke-dasharray: 5.55,2.4; stroke-dashoffset: 0; stroke: #ff0000; stroke-width: 1.5"/>
   </g>
   <g id="patch_3">
    <path d="M 40.603125 498.441435 
L 40.603125 22.318125 
" style="fill: none; stroke: #000000; stroke-width: 0.8; stroke-linejoin: miter; stroke-linecap: square"/>
   </g>
   <g id="patch_4">
    <path d="M 849.683125 498.441435 
L 849.683125 22.318125 
" style="fill: none; stroke: #000000; stroke-width: 0.8; stroke-linejoin: miter; stroke-linecap: square"/>
   </g>
   <g id="patch_5">
    <path d="M 40.603125 498.441435 
L 849.683125 498.441435 
" style="fill: none; stroke: #000000; stroke-width: 0.8; stroke-linejoin: miter; stroke-linecap: square"/>
   </g>
   <g id="patch_6">
    <path d="M 40.603125 22.318125 
L 849.683125 22.318125 
" style="fill: none; stroke: #000000; stroke-width: 0.8; stroke-linejoin: miter; stroke-linecap: square"/>
   </g>
   <g id="text_11">
    <text style="font-size: 12px; font-family: 'DejaVu Sans', 'Bitstream Vera Sans', 'Computer Modern Sans Serif', 'Lucida Grande', 'Verdana', 'Geneva', 'Lucid', 'Arial', 'Helvetica', 'Avant Garde', sans-serif; text-anchor: middle" x="445.143125" y="16.318125" transform="rotate(-0 445.143125 16.318125)">Violin Plot of TSSE Across Samples</text>
   </g>
   <g id="legend_1">
    <g id="patch_7">
     <path d="M 672.815938 44.99625 
L 842.683125 44.99625 
Q 844.683125 44.99625 844.683125 42.99625 
L 844.683125 29.318125 
Q 844.683125 27.318125 842.683125 27.318125 
L 672.815938 27.318125 
Q 670.815938 27.318125 670.815938 29.318125 
L 670.815938 42.99625 
Q 670.815938 44.99625 672.815938 44.99625 
z
" style="fill: #ffffff; opacity: 0.8; stroke: #cccccc; stroke-linejoin: miter"/>
    </g>
    <g id="line2d_10">
     <path d="M 674.815938 35.416563 
L 684.815938 35.416563 
L 694.815938 35.416563 
" style="fill: none; stroke-dasharray: 5.55,2.4; stroke-dashoffset: 0; stroke: #ff0000; stroke-width: 1.5"/>
    </g>
    <g id="text_12">
     <text style="font-size: 10px; font-family: 'DejaVu Sans', 'Bitstream Vera Sans', 'Computer Modern Sans Serif', 'Lucida Grande', 'Verdana', 'Geneva', 'Lucid', 'Arial', 'Helvetica', 'Avant Garde', sans-serif; text-anchor: start" x="702.815938" y="38.916563" transform="rotate(-0 702.815938 38.916563)">Global median TSSE = 1.97</text>
    </g>
   </g>
  </g>
 </g>
 <defs>
  <clipPath id="p0fc8e3a661">
   <rect x="40.603125" y="22.318125" width="809.08" height="476.12331"/>
  </clipPath>
 </defs>
</svg>
